<svg xmlns="http://www.w3.org/2000/svg" viewBox="0 0 400 580" width="400" height="580" role="img" aria-label="Cover of The Cap on Non-Pecuniary General Damages — J. Davidson"><title>Cover of The Cap on Non-Pecuniary General Damages — J. Davidson</title><defs><linearGradient id="band-f3d2dc7" x1="0" y1="0" x2="0.8" y2="1"><stop offset="0" stop-color="#505c6d"/><stop offset="1" stop-color="#283342"/></linearGradient><linearGradient id="paper-f3d2dc7" x1="0" y1="0" x2="0" y2="1"><stop offset="0" stop-color="#fbfaf7"/><stop offset="1" stop-color="#f6f5f1"/></linearGradient><clipPath id="crop-f3d2dc7"><rect x="0" y="0" width="400" height="236"/></clipPath></defs><rect x="0" y="0" width="400" height="580" fill="url(#paper-f3d2dc7)"/><g clip-path="url(#crop-f3d2dc7)"><rect x="0" y="0" width="400" height="236" fill="url(#band-f3d2dc7)"/><circle cx="66" cy="132.16" r="58" fill="none" stroke="#ffffff" stroke-width="10" opacity="0.15"/><rect x="0" y="186.44" width="400" height="5" fill="#ffffff" opacity="0.2"/><circle cx="316" cy="78" r="92" fill="#94a3b8"/><circle cx="132" cy="44" r="6.5" fill="#ffffff" opacity="0.3"/><circle cx="166" cy="44" r="6.5" fill="#ffffff" opacity="0.3"/><circle cx="200" cy="44" r="6.5" fill="#ffffff" opacity="0.3"/><circle cx="234" cy="44" r="6.5" fill="#ffffff" opacity="0.3"/><circle cx="268" cy="44" r="6.5" fill="#ffffff" opacity="0.3"/><circle cx="302" cy="44" r="6.5" fill="#ffffff" opacity="0.3"/><circle cx="336" cy="44" r="6.5" fill="#ffffff" opacity="0.3"/><circle cx="132" cy="84" r="6.5" fill="#ffffff" opacity="0.3"/><circle cx="166" cy="84" r="6.5" fill="#ffffff" opacity="0.3"/><circle cx="200" cy="84" r="6.5" fill="#ffffff" opacity="0.3"/><circle cx="234" cy="84" r="6.5" fill="#ffffff" opacity="0.3"/><circle cx="268" cy="84" r="6.5" fill="#ffffff" opacity="0.3"/><circle cx="302" cy="84" r="6.5" fill="#ffffff" opacity="0.3"/><circle cx="336" cy="84" r="6.5" fill="#ffffff" opacity="0.3"/><circle cx="132" cy="124" r="6.5" fill="#ffffff" opacity="0.3"/><circle cx="166" cy="124" r="6.5" fill="#ffffff" opacity="0.3"/><circle cx="200" cy="124" r="6.5" fill="#ffffff" opacity="0.3"/><circle cx="234" cy="124" r="6.5" fill="#ffffff" opacity="0.3"/><circle cx="268" cy="124" r="6.5" fill="#ffffff" opacity="0.3"/><circle cx="302" cy="124" r="6.5" fill="#ffffff" opacity="0.3"/><circle cx="336" cy="124" r="6.5" fill="#ffffff" opacity="0.3"/><circle cx="132" cy="164" r="6.5" fill="#ffffff" opacity="0.3"/><circle cx="166" cy="164" r="6.5" fill="#ffffff" opacity="0.3"/><circle cx="200" cy="164" r="6.5" fill="#ffffff" opacity="0.3"/><circle cx="234" cy="164" r="6.5" fill="#ffffff" opacity="0.3"/><circle cx="268" cy="164" r="6.5" fill="#ffffff" opacity="0.3"/><circle cx="302" cy="164" r="6.5" fill="#ffffff" opacity="0.3"/><circle cx="336" cy="164" r="6.5" fill="#ffffff" opacity="0.3"/></g><rect x="0" y="230" width="400" height="6" fill="#94a3b8"/><text x="30" y="52" font-family="'Helvetica Neue', Helvetica, Arial, sans-serif" font-size="10.5" font-weight="700" fill="#ffffff" text-anchor="start" letter-spacing="1.9" opacity="0.92">PAPER</text><text x="30" y="332.2" font-family="'Helvetica Neue', Helvetica, Arial, sans-serif" font-size="40" font-weight="700" fill="#14161a" text-anchor="start">The Cap on</text><text x="30" y="374.6" font-family="'Helvetica Neue', Helvetica, Arial, sans-serif" font-size="40" font-weight="700" fill="#14161a" text-anchor="start">Non-Pecuniary</text><text x="30" y="417" font-family="'Helvetica Neue', Helvetica, Arial, sans-serif" font-size="40" font-weight="700" fill="#14161a" text-anchor="start">General Damages</text><text x="30" y="445" font-family="'Helvetica Neue', Helvetica, Arial, sans-serif" font-size="16" font-weight="400" fill="#737474" text-anchor="start">Where is it Going and How Does it</text><text x="30" y="465.8" font-family="'Helvetica Neue', Helvetica, Arial, sans-serif" font-size="16" font-weight="400" fill="#737474" text-anchor="start">Affect Litigation?</text><line x1="30" y1="522" x2="370" y2="522" stroke="#14161a" stroke-width="1" opacity="0.14"/><text x="30" y="544" font-family="'Helvetica Neue', Helvetica, Arial, sans-serif" font-size="9.5" font-weight="700" fill="#7a7a7b" text-anchor="start" letter-spacing="1.5">J. DAVIDSON</text></svg>
