<svg xmlns="http://www.w3.org/2000/svg" viewBox="0 46 360 366" width="360" height="366" role="img">
  <title>The aggregate loss distribution built as layers — losses from one claim, two claims and three or more — with a spike at zero for no claims</title>
  <style>:root {
  --surf: #ffffff; --edge: #c7c7c7; --ink: #000000; --dim: #424242;
  --grid: #dedede; --soft: #e8e8e8; --axis: #8c8c8c;
}
@media (prefers-color-scheme: dark) {
  :root {
    --surf: #171717; --edge: #424242; --ink: #ffffff; --dim: #c7c7c7;
    --grid: #333333; --soft: #242424; --axis: #6b6b6b;
  }
}
/* Named by the host in the embed URL (`…svg#dark`), and beats the media query
   above because a value set here lands on the drawing rather than on the root
   it inherits from. See the module docstring. */
#light:target ~ * { --surf: #ffffff; --edge: #c7c7c7; --ink: #000000; --dim: #424242;
  --grid: #dedede; --soft: #e8e8e8; --axis: #8c8c8c; }
#dark:target ~ * { --surf: #171717; --edge: #424242; --ink: #ffffff; --dim: #c7c7c7;
  --grid: #333333; --soft: #242424; --axis: #6b6b6b; }
text {
  font-family: ui-sans-serif, system-ui, -apple-system, "Segoe UI", Roboto,
               "Helvetica Neue", Arial, sans-serif;
  fill: var(--ink);
  font-size: 12px;
}
.dim { fill: var(--dim); }
.sm  { font-size: 10.5px; }
.bold { font-weight: 600; }
.mono {
  font-family: ui-monospace, SFMono-Regular, Menlo, Consolas, monospace;
  font-size: 11px;
}
.card { fill: var(--surf); stroke: var(--edge); }
.axis { stroke: var(--axis); stroke-width: 1.1; fill: none; }
.grid { stroke: var(--grid); stroke-width: 1; fill: none; }
.tick { stroke: var(--axis); stroke-width: 1; }
.rule { stroke: var(--edge); stroke-width: 1; fill: none; }
.soft { fill: var(--soft); }
.curve { fill: none; stroke-width: 2; stroke-linecap: round;
         stroke-linejoin: round; }
.thin  { fill: none; stroke-width: 1.4; stroke-linecap: round; }
.dash  { stroke-dasharray: 4 3; }
.dot   { stroke-dasharray: 1.5 3; stroke-linecap: round; }</style>
  <g id="light"/><g id="dark"/>
  <defs>
    <marker id="ahvaraxis" viewBox="0 0 8 8" refX="6.6" refY="4" markerWidth="6" markerHeight="6" orient="auto-start-reverse"><path d="M0,0.6 L7.4,4 L0,7.4 z" fill="var(--axis)"/></marker>
  </defs>
  <g class="art">
    <rect class="card" x="0.6" y="46.6" width="358.8" height="364.8" rx="10"/>
    <line x1="50" y1="348" x2="336" y2="348" class="thin" stroke="var(--axis)" stroke-width="1.1" marker-end="url(#ahvaraxis)"/>
    <line x1="50" y1="348" x2="50" y2="80" class="thin" stroke="var(--axis)" stroke-width="1.1" marker-end="url(#ahvaraxis)"/>
    <line x1="50" y1="348" x2="50" y2="352" class="tick"/>
    <text x="50" y="364" text-anchor="middle" class="sm dim">0</text>
    <line x1="119" y1="348" x2="119" y2="352" class="tick"/>
    <text x="119" y="364" text-anchor="middle" class="sm dim">10</text>
    <line x1="188" y1="348" x2="188" y2="352" class="tick"/>
    <text x="188" y="364" text-anchor="middle" class="sm dim">20</text>
    <line x1="257" y1="348" x2="257" y2="352" class="tick"/>
    <text x="257" y="364" text-anchor="middle" class="sm dim">30</text>
    <line x1="326" y1="348" x2="326" y2="352" class="tick"/>
    <text x="326" y="364" text-anchor="middle" class="sm dim">40</text>
    <text x="326" y="380" text-anchor="end" class="sm dim">aggregate loss S</text>
    <polygon points="51.73,348 53.45,348 55.17,348 56.9,348 58.62,348 60.35,348 62.08,348 63.8,348 65.53,348 67.25,348 68.97,348 70.7,348 72.42,348 74.15,348 75.88,348 77.6,348 79.33,348 81.05,348 82.78,348 84.5,348 86.22,348 87.95,348 89.67,348 91.4,348 93.12,348 94.85,348 96.58,348 98.3,348 100.03,348 101.75,348 103.47,348 105.2,348 106.92,348 108.65,348 110.38,348 112.1,348 113.83,348 115.55,348 117.27,348 119,348 120.72,348 122.45,348 124.17,348 125.9,348 127.62,348 129.35,348 131.07,348 132.8,348 134.53,348 136.25,348 137.97,348 139.7,348 141.43,348 143.15,348 144.88,348 146.6,348 148.32,348 150.05,348 151.78,348 153.5,348 155.22,348 156.95,348 158.68,348 160.4,348 162.12,348 163.85,348 165.57,348 167.3,348 169.03,348 170.75,348 172.47,348 174.2,348 175.93,348 177.65,348 179.38,348 181.1,348 182.83,348 184.55,348 186.28,348 188,348 189.72,348 191.45,348 193.18,348 194.9,348 196.62,348 198.35,348 200.07,348 201.8,348 203.53,348 205.25,348 206.97,348 208.7,348 210.43,348 212.15,348 213.88,348 215.6,348 217.32,348 219.05,348 220.78,348 222.5,348 224.22,348 225.95,348 227.68,348 229.4,348 231.12,348 232.85,348 234.57,348 236.3,348 238.03,348 239.75,348 241.47,348 243.2,348 244.93,348 246.65,348 248.38,348 250.1,348 251.82,348 253.55,348 255.28,348 257,348 258.73,348 260.45,348 262.18,348 263.9,348 265.62,348 267.35,348 269.07,348 270.8,348 272.52,348 274.25,348 275.98,348 277.7,348 279.43,348 281.15,348 282.88,348 284.6,348 286.32,348 288.05,348 289.77,348 291.5,348 293.23,348 294.95,348 296.68,348 298.4,348 300.12,348 301.85,348 303.57,348 305.3,348 307.03,348 308.75,348 310.47,348 312.2,348 313.93,348 315.65,348 317.38,348 319.1,348 320.82,348 322.55,348 324.28,348 326,348 326,347.99 324.28,347.99 322.55,347.99 320.82,347.99 319.1,347.99 317.38,347.99 315.65,347.99 313.93,347.99 312.2,347.99 310.47,347.99 308.75,347.99 307.03,347.98 305.3,347.98 303.57,347.98 301.85,347.98 300.12,347.98 298.4,347.98 296.68,347.97 294.95,347.97 293.23,347.97 291.5,347.97 289.77,347.97 288.05,347.96 286.32,347.96 284.6,347.96 282.88,347.95 281.15,347.95 279.43,347.94 277.7,347.94 275.98,347.94 274.25,347.93 272.52,347.92 270.8,347.92 269.07,347.91 267.35,347.91 265.62,347.9 263.9,347.89 262.18,347.88 260.45,347.87 258.73,347.86 257,347.85 255.28,347.84 253.55,347.82 251.82,347.81 250.1,347.8 248.38,347.78 246.65,347.76 244.93,347.74 243.2,347.72 241.47,347.7 239.75,347.68 238.03,347.65 236.3,347.62 234.57,347.59 232.85,347.56 231.12,347.53 229.4,347.49 227.68,347.45 225.95,347.41 224.22,347.36 222.5,347.31 220.78,347.26 219.05,347.2 217.32,347.14 215.6,347.07 213.88,347 212.15,346.92 210.43,346.83 208.7,346.74 206.97,346.65 205.25,346.54 203.53,346.43 201.8,346.31 200.07,346.18 198.35,346.04 196.62,345.89 194.9,345.73 193.18,345.55 191.45,345.36 189.72,345.16 188,344.95 186.28,344.72 184.55,344.47 182.83,344.2 181.1,343.91 179.38,343.6 177.65,343.27 175.93,342.92 174.2,342.53 172.47,342.13 170.75,341.69 169.03,341.22 167.3,340.71 165.57,340.17 163.85,339.6 162.12,338.98 160.4,338.31 158.68,337.6 156.95,336.84 155.22,336.03 153.5,335.16 151.78,334.23 150.05,333.24 148.32,332.18 146.6,331.04 144.88,329.83 143.15,328.54 141.43,327.17 139.7,325.7 137.97,324.13 136.25,322.47 134.53,320.69 132.8,318.81 131.07,316.8 129.35,314.66 127.62,312.4 125.9,309.99 124.17,307.44 122.45,304.74 120.72,301.88 119,298.85 117.27,295.65 115.55,292.27 113.83,288.71 112.1,284.96 110.38,281 108.65,276.85 106.92,272.49 105.2,267.93 103.47,263.15 101.75,258.16 100.03,252.97 98.3,247.57 96.58,241.97 94.85,236.19 93.12,230.22 91.4,224.1 89.67,217.84 87.95,211.47 86.22,205.03 84.5,198.55 82.78,192.09 81.05,185.72 79.33,179.5 77.6,173.53 75.88,167.91 74.15,162.77 72.42,158.26 70.7,154.56 68.97,151.89 67.25,150.49 65.53,150.68 63.8,152.82 62.08,157.35 60.35,164.83 58.62,175.93 56.9,191.55 55.17,212.91 53.45,241.85 51.73,281.73" fill="#3b82f6" fill-opacity="0.5" stroke="#3b82f6" stroke-width="1"/>
    <polygon points="51.73,281.73 53.45,241.85 55.17,212.91 56.9,191.55 58.62,175.93 60.35,164.83 62.08,157.35 63.8,152.82 65.53,150.68 67.25,150.49 68.97,151.89 70.7,154.56 72.42,158.26 74.15,162.77 75.88,167.91 77.6,173.53 79.33,179.5 81.05,185.72 82.78,192.09 84.5,198.55 86.22,205.03 87.95,211.47 89.67,217.84 91.4,224.1 93.12,230.22 94.85,236.19 96.58,241.97 98.3,247.57 100.03,252.97 101.75,258.16 103.47,263.15 105.2,267.93 106.92,272.49 108.65,276.85 110.38,281 112.1,284.96 113.83,288.71 115.55,292.27 117.27,295.65 119,298.85 120.72,301.88 122.45,304.74 124.17,307.44 125.9,309.99 127.62,312.4 129.35,314.66 131.07,316.8 132.8,318.81 134.53,320.69 136.25,322.47 137.97,324.13 139.7,325.7 141.43,327.17 143.15,328.54 144.88,329.83 146.6,331.04 148.32,332.18 150.05,333.24 151.78,334.23 153.5,335.16 155.22,336.03 156.95,336.84 158.68,337.6 160.4,338.31 162.12,338.98 163.85,339.6 165.57,340.17 167.3,340.71 169.03,341.22 170.75,341.69 172.47,342.13 174.2,342.53 175.93,342.92 177.65,343.27 179.38,343.6 181.1,343.91 182.83,344.2 184.55,344.47 186.28,344.72 188,344.95 189.72,345.16 191.45,345.36 193.18,345.55 194.9,345.73 196.62,345.89 198.35,346.04 200.07,346.18 201.8,346.31 203.53,346.43 205.25,346.54 206.97,346.65 208.7,346.74 210.43,346.83 212.15,346.92 213.88,347 215.6,347.07 217.32,347.14 219.05,347.2 220.78,347.26 222.5,347.31 224.22,347.36 225.95,347.41 227.68,347.45 229.4,347.49 231.12,347.53 232.85,347.56 234.57,347.59 236.3,347.62 238.03,347.65 239.75,347.68 241.47,347.7 243.2,347.72 244.93,347.74 246.65,347.76 248.38,347.78 250.1,347.8 251.82,347.81 253.55,347.82 255.28,347.84 257,347.85 258.73,347.86 260.45,347.87 262.18,347.88 263.9,347.89 265.62,347.9 267.35,347.91 269.07,347.91 270.8,347.92 272.52,347.92 274.25,347.93 275.98,347.94 277.7,347.94 279.43,347.94 281.15,347.95 282.88,347.95 284.6,347.96 286.32,347.96 288.05,347.96 289.77,347.97 291.5,347.97 293.23,347.97 294.95,347.97 296.68,347.97 298.4,347.98 300.12,347.98 301.85,347.98 303.57,347.98 305.3,347.98 307.03,347.98 308.75,347.99 310.47,347.99 312.2,347.99 313.93,347.99 315.65,347.99 317.38,347.99 319.1,347.99 320.82,347.99 322.55,347.99 324.28,347.99 326,347.99 326,347.87 324.28,347.86 322.55,347.85 320.82,347.84 319.1,347.83 317.38,347.81 315.65,347.8 313.93,347.79 312.2,347.77 310.47,347.76 308.75,347.74 307.03,347.72 305.3,347.7 303.57,347.68 301.85,347.66 300.12,347.64 298.4,347.61 296.68,347.59 294.95,347.56 293.23,347.53 291.5,347.5 289.77,347.46 288.05,347.43 286.32,347.39 284.6,347.35 282.88,347.3 281.15,347.26 279.43,347.21 277.7,347.15 275.98,347.1 274.25,347.04 272.52,346.97 270.8,346.91 269.07,346.83 267.35,346.76 265.62,346.68 263.9,346.59 262.18,346.5 260.45,346.4 258.73,346.29 257,346.18 255.28,346.06 253.55,345.94 251.82,345.81 250.1,345.67 248.38,345.52 246.65,345.36 244.93,345.19 243.2,345.01 241.47,344.82 239.75,344.62 238.03,344.4 236.3,344.18 234.57,343.94 232.85,343.68 231.12,343.42 229.4,343.13 227.68,342.83 225.95,342.51 224.22,342.17 222.5,341.82 220.78,341.44 219.05,341.04 217.32,340.62 215.6,340.17 213.88,339.7 212.15,339.21 210.43,338.68 208.7,338.13 206.97,337.55 205.25,336.93 203.53,336.28 201.8,335.6 200.07,334.88 198.35,334.12 196.62,333.32 194.9,332.48 193.18,331.6 191.45,330.67 189.72,329.69 188,328.66 186.28,327.59 184.55,326.46 182.83,325.27 181.1,324.02 179.38,322.72 177.65,321.35 175.93,319.92 174.2,318.42 172.47,316.85 170.75,315.21 169.03,313.5 167.3,311.71 165.57,309.84 163.85,307.89 162.12,305.85 160.4,303.73 158.68,301.53 156.95,299.23 155.22,296.84 153.5,294.36 151.78,291.78 150.05,289.1 148.32,286.32 146.6,283.45 144.88,280.47 143.15,277.39 141.43,274.2 139.7,270.91 137.97,267.52 136.25,264.02 134.53,260.42 132.8,256.71 131.07,252.9 129.35,248.99 127.62,244.99 125.9,240.88 124.17,236.68 122.45,232.4 120.72,228.02 119,223.57 117.27,219.04 115.55,214.44 113.83,209.78 112.1,205.06 110.38,200.3 108.65,195.5 106.92,190.68 105.2,185.84 103.47,181 101.75,176.17 100.03,171.37 98.3,166.61 96.58,161.92 94.85,157.31 93.12,152.8 91.4,148.42 89.67,144.2 87.95,140.17 86.22,136.36 84.5,132.81 82.78,129.56 81.05,126.66 79.33,124.18 77.6,122.16 75.88,120.7 74.15,119.89 72.42,119.82 70.7,120.63 68.97,122.48 67.25,125.54 65.53,130.06 63.8,136.32 62.08,144.68 60.35,155.6 58.62,169.68 56.9,187.75 55.17,210.96 53.45,241.11 51.73,281.6" fill="#d97706" fill-opacity="0.5" stroke="#d97706" stroke-width="1"/>
    <polygon points="51.73,281.6 53.45,241.11 55.17,210.96 56.9,187.75 58.62,169.68 60.35,155.6 62.08,144.68 63.8,136.32 65.53,130.06 67.25,125.54 68.97,122.48 70.7,120.63 72.42,119.82 74.15,119.89 75.88,120.7 77.6,122.16 79.33,124.18 81.05,126.66 82.78,129.56 84.5,132.81 86.22,136.36 87.95,140.17 89.67,144.2 91.4,148.42 93.12,152.8 94.85,157.31 96.58,161.92 98.3,166.61 100.03,171.37 101.75,176.17 103.47,181 105.2,185.84 106.92,190.68 108.65,195.5 110.38,200.3 112.1,205.06 113.83,209.78 115.55,214.44 117.27,219.04 119,223.57 120.72,228.02 122.45,232.4 124.17,236.68 125.9,240.88 127.62,244.99 129.35,248.99 131.07,252.9 132.8,256.71 134.53,260.42 136.25,264.02 137.97,267.52 139.7,270.91 141.43,274.2 143.15,277.39 144.88,280.47 146.6,283.45 148.32,286.32 150.05,289.1 151.78,291.78 153.5,294.36 155.22,296.84 156.95,299.23 158.68,301.53 160.4,303.73 162.12,305.85 163.85,307.89 165.57,309.84 167.3,311.71 169.03,313.5 170.75,315.21 172.47,316.85 174.2,318.42 175.93,319.92 177.65,321.35 179.38,322.72 181.1,324.02 182.83,325.27 184.55,326.46 186.28,327.59 188,328.66 189.72,329.69 191.45,330.67 193.18,331.6 194.9,332.48 196.62,333.32 198.35,334.12 200.07,334.88 201.8,335.6 203.53,336.28 205.25,336.93 206.97,337.55 208.7,338.13 210.43,338.68 212.15,339.21 213.88,339.7 215.6,340.17 217.32,340.62 219.05,341.04 220.78,341.44 222.5,341.82 224.22,342.17 225.95,342.51 227.68,342.83 229.4,343.13 231.12,343.42 232.85,343.68 234.57,343.94 236.3,344.18 238.03,344.4 239.75,344.62 241.47,344.82 243.2,345.01 244.93,345.19 246.65,345.36 248.38,345.52 250.1,345.67 251.82,345.81 253.55,345.94 255.28,346.06 257,346.18 258.73,346.29 260.45,346.4 262.18,346.5 263.9,346.59 265.62,346.68 267.35,346.76 269.07,346.83 270.8,346.91 272.52,346.97 274.25,347.04 275.98,347.1 277.7,347.15 279.43,347.21 281.15,347.26 282.88,347.3 284.6,347.35 286.32,347.39 288.05,347.43 289.77,347.46 291.5,347.5 293.23,347.53 294.95,347.56 296.68,347.59 298.4,347.61 300.12,347.64 301.85,347.66 303.57,347.68 305.3,347.7 307.03,347.72 308.75,347.74 310.47,347.76 312.2,347.77 313.93,347.79 315.65,347.8 317.38,347.81 319.1,347.83 320.82,347.84 322.55,347.85 324.28,347.86 326,347.87 326,345.54 324.28,345.44 322.55,345.33 320.82,345.21 319.1,345.1 317.38,344.98 315.65,344.85 313.93,344.72 312.2,344.58 310.47,344.44 308.75,344.29 307.03,344.14 305.3,343.98 303.57,343.81 301.85,343.64 300.12,343.46 298.4,343.27 296.68,343.08 294.95,342.88 293.23,342.67 291.5,342.45 289.77,342.23 288.05,342 286.32,341.75 284.6,341.5 282.88,341.24 281.15,340.97 279.43,340.69 277.7,340.4 275.98,340.1 274.25,339.78 272.52,339.46 270.8,339.12 269.07,338.77 267.35,338.41 265.62,338.03 263.9,337.65 262.18,337.24 260.45,336.82 258.73,336.39 257,335.94 255.28,335.48 253.55,335 251.82,334.5 250.1,333.99 248.38,333.46 246.65,332.91 244.93,332.34 243.2,331.75 241.47,331.14 239.75,330.51 238.03,329.85 236.3,329.18 234.57,328.48 232.85,327.76 231.12,327.02 229.4,326.25 227.68,325.45 225.95,324.63 224.22,323.79 222.5,322.91 220.78,322.01 219.05,321.08 217.32,320.12 215.6,319.13 213.88,318.11 212.15,317.05 210.43,315.96 208.7,314.84 206.97,313.69 205.25,312.5 203.53,311.28 201.8,310.01 200.07,308.71 198.35,307.38 196.62,306 194.9,304.58 193.18,303.13 191.45,301.63 189.72,300.09 188,298.51 186.28,296.88 184.55,295.21 182.83,293.49 181.1,291.73 179.38,289.92 177.65,288.06 175.93,286.16 174.2,284.2 172.47,282.2 170.75,280.14 169.03,278.04 167.3,275.89 165.57,273.68 163.85,271.42 162.12,269.11 160.4,266.74 158.68,264.33 156.95,261.85 155.22,259.33 153.5,256.75 151.78,254.12 150.05,251.43 148.32,248.69 146.6,245.9 144.88,243.05 143.15,240.15 141.43,237.19 139.7,234.19 137.97,231.13 136.25,228.02 134.53,224.86 132.8,221.66 131.07,218.41 129.35,215.11 127.62,211.76 125.9,208.38 124.17,204.95 122.45,201.49 120.72,197.99 119,194.46 117.27,190.9 115.55,187.31 113.83,183.7 112.1,180.07 110.38,176.43 108.65,172.78 106.92,169.13 105.2,165.49 103.47,161.86 101.75,158.24 100.03,154.66 98.3,151.12 96.58,147.63 94.85,144.21 93.12,140.87 91.4,137.63 89.67,134.51 87.95,131.54 86.22,128.74 84.5,126.15 82.78,123.81 81.05,121.75 79.33,120.03 77.6,118.73 75.88,117.9 74.15,117.64 72.42,118.06 70.7,119.29 68.97,121.49 67.25,124.84 65.53,129.58 63.8,136.01 62.08,144.49 60.35,155.5 58.62,169.63 56.9,187.73 55.17,210.95 53.45,241.11 51.73,281.6" fill="#7c3aed" fill-opacity="0.5" stroke="#7c3aed" stroke-width="1"/>
    <text x="72.08" y="278.89" text-anchor="start" class="sm bold">N = 1</text>
    <line x1="109.34" y1="228.21" x2="164.3" y2="191.96" stroke="#d97706" stroke-width="1.2"/>
    <circle cx="109.34" cy="228.21" r="2.4" fill="#d97706"/>
    <text x="167.3" y="195.96" text-anchor="start" class="sm bold">N = 2</text>
    <line x1="150.05" y1="274.29" x2="191.9" y2="242.64" stroke="#7c3aed" stroke-width="1.2"/>
    <circle cx="150.05" cy="274.29" r="2.4" fill="#7c3aed"/>
    <text x="194.9" y="246.64" text-anchor="start" class="sm bold">N ≥ 3</text>
    <line x1="50" y1="348" x2="50" y2="113.04" stroke="#059669" stroke-width="3" stroke-linecap="round"/>
    <circle cx="50" cy="113.04" r="4.4" fill="#059669"/>
    <text x="59" y="117.04" text-anchor="start" class="sm bold">N = 0</text>
  </g>
</svg>
