<?xml version="1.0" encoding="utf-8" standalone="no"?>
<!DOCTYPE svg PUBLIC "-//W3C//DTD SVG 1.1//EN"
  "http://www.w3.org/Graphics/SVG/1.1/DTD/svg11.dtd">
<svg xmlns:xlink="http://www.w3.org/1999/xlink" width="388.937187pt" height="222.586719pt" viewBox="0 0 388.937187 222.586719" xmlns="http://www.w3.org/2000/svg" version="1.1">
 <metadata>
  <rdf:RDF xmlns:dc="http://purl.org/dc/elements/1.1/" xmlns:cc="http://creativecommons.org/ns#" xmlns:rdf="http://www.w3.org/1999/02/22-rdf-syntax-ns#">
   <cc:Work>
    <dc:type rdf:resource="http://purl.org/dc/dcmitype/StillImage"/>
    <dc:date>2026-05-29T04:30:08.632154</dc:date>
    <dc:format>image/svg+xml</dc:format>
    <dc:creator>
     <cc:Agent>
      <dc:title>Matplotlib v3.10.9, https://matplotlib.org/</dc:title>
     </cc:Agent>
    </dc:creator>
   </cc:Work>
  </rdf:RDF>
 </metadata>
 <defs>
  <style type="text/css">*{stroke-linejoin: round; stroke-linecap: butt}</style>
 </defs>
 <g id="figure_1">
  <g id="patch_1">
   <path d="M -0 222.586719 
L 388.937187 222.586719 
L 388.937187 0 
L -0 0 
L -0 222.586719 
z
" style="fill: none"/>
  </g>
  <g id="axes_1">
   <g id="patch_2">
    <path d="M 47.917188 185.998281 
L 381.737188 185.998281 
L 381.737188 21.558281 
L 47.917188 21.558281 
L 47.917188 185.998281 
z
" style="fill: none"/>
   </g>
   <g id="matplotlib.axis_1">
    <g id="xtick_1">
     <g id="line2d_1">
      <defs>
       <path id="mbbf749083a" d="M 0 0 
L 0 3.5 
" style="stroke: #000000; stroke-width: 0.8"/>
      </defs>
      <g>
       <use xlink:href="#mbbf749083a" x="63.090824" y="185.998281" style="stroke: #000000; stroke-width: 0.8"/>
      </g>
     </g>
     <g id="text_1">
      <!-- 0 -->
      <g transform="translate(60.227699 199.836875) scale(0.09 -0.09)">
       <defs>
        <path id="DejaVuSans-30" d="M 2034 4250 
Q 1547 4250 1301 3770 
Q 1056 3291 1056 2328 
Q 1056 1369 1301 889 
Q 1547 409 2034 409 
Q 2525 409 2770 889 
Q 3016 1369 3016 2328 
Q 3016 3291 2770 3770 
Q 2525 4250 2034 4250 
z
M 2034 4750 
Q 2819 4750 3233 4129 
Q 3647 3509 3647 2328 
Q 3647 1150 3233 529 
Q 2819 -91 2034 -91 
Q 1250 -91 836 529 
Q 422 1150 422 2328 
Q 422 3509 836 4129 
Q 1250 4750 2034 4750 
z
" transform="scale(0.015625)"/>
       </defs>
       <use xlink:href="#DejaVuSans-30"/>
      </g>
     </g>
    </g>
    <g id="xtick_2">
     <g id="line2d_2">
      <g>
       <use xlink:href="#mbbf749083a" x="123.785369" y="185.998281" style="stroke: #000000; stroke-width: 0.8"/>
      </g>
     </g>
     <g id="text_2">
      <!-- 20 -->
      <g transform="translate(118.059119 199.836875) scale(0.09 -0.09)">
       <defs>
        <path id="DejaVuSans-32" d="M 1228 531 
L 3431 531 
L 3431 0 
L 469 0 
L 469 531 
Q 828 903 1448 1529 
Q 2069 2156 2228 2338 
Q 2531 2678 2651 2914 
Q 2772 3150 2772 3378 
Q 2772 3750 2511 3984 
Q 2250 4219 1831 4219 
Q 1534 4219 1204 4116 
Q 875 4013 500 3803 
L 500 4441 
Q 881 4594 1212 4672 
Q 1544 4750 1819 4750 
Q 2544 4750 2975 4387 
Q 3406 4025 3406 3419 
Q 3406 3131 3298 2873 
Q 3191 2616 2906 2266 
Q 2828 2175 2409 1742 
Q 1991 1309 1228 531 
z
" transform="scale(0.015625)"/>
       </defs>
       <use xlink:href="#DejaVuSans-32"/>
       <use xlink:href="#DejaVuSans-30" transform="translate(63.623047 0)"/>
      </g>
     </g>
    </g>
    <g id="xtick_3">
     <g id="line2d_3">
      <g>
       <use xlink:href="#mbbf749083a" x="184.479915" y="185.998281" style="stroke: #000000; stroke-width: 0.8"/>
      </g>
     </g>
     <g id="text_3">
      <!-- 40 -->
      <g transform="translate(178.753665 199.836875) scale(0.09 -0.09)">
       <defs>
        <path id="DejaVuSans-34" d="M 2419 4116 
L 825 1625 
L 2419 1625 
L 2419 4116 
z
M 2253 4666 
L 3047 4666 
L 3047 1625 
L 3713 1625 
L 3713 1100 
L 3047 1100 
L 3047 0 
L 2419 0 
L 2419 1100 
L 313 1100 
L 313 1709 
L 2253 4666 
z
" transform="scale(0.015625)"/>
       </defs>
       <use xlink:href="#DejaVuSans-34"/>
       <use xlink:href="#DejaVuSans-30" transform="translate(63.623047 0)"/>
      </g>
     </g>
    </g>
    <g id="xtick_4">
     <g id="line2d_4">
      <g>
       <use xlink:href="#mbbf749083a" x="245.17446" y="185.998281" style="stroke: #000000; stroke-width: 0.8"/>
      </g>
     </g>
     <g id="text_4">
      <!-- 60 -->
      <g transform="translate(239.44821 199.836875) scale(0.09 -0.09)">
       <defs>
        <path id="DejaVuSans-36" d="M 2113 2584 
Q 1688 2584 1439 2293 
Q 1191 2003 1191 1497 
Q 1191 994 1439 701 
Q 1688 409 2113 409 
Q 2538 409 2786 701 
Q 3034 994 3034 1497 
Q 3034 2003 2786 2293 
Q 2538 2584 2113 2584 
z
M 3366 4563 
L 3366 3988 
Q 3128 4100 2886 4159 
Q 2644 4219 2406 4219 
Q 1781 4219 1451 3797 
Q 1122 3375 1075 2522 
Q 1259 2794 1537 2939 
Q 1816 3084 2150 3084 
Q 2853 3084 3261 2657 
Q 3669 2231 3669 1497 
Q 3669 778 3244 343 
Q 2819 -91 2113 -91 
Q 1303 -91 875 529 
Q 447 1150 447 2328 
Q 447 3434 972 4092 
Q 1497 4750 2381 4750 
Q 2619 4750 2861 4703 
Q 3103 4656 3366 4563 
z
" transform="scale(0.015625)"/>
       </defs>
       <use xlink:href="#DejaVuSans-36"/>
       <use xlink:href="#DejaVuSans-30" transform="translate(63.623047 0)"/>
      </g>
     </g>
    </g>
    <g id="xtick_5">
     <g id="line2d_5">
      <g>
       <use xlink:href="#mbbf749083a" x="305.869006" y="185.998281" style="stroke: #000000; stroke-width: 0.8"/>
      </g>
     </g>
     <g id="text_5">
      <!-- 80 -->
      <g transform="translate(300.142756 199.836875) scale(0.09 -0.09)">
       <defs>
        <path id="DejaVuSans-38" d="M 2034 2216 
Q 1584 2216 1326 1975 
Q 1069 1734 1069 1313 
Q 1069 891 1326 650 
Q 1584 409 2034 409 
Q 2484 409 2743 651 
Q 3003 894 3003 1313 
Q 3003 1734 2745 1975 
Q 2488 2216 2034 2216 
z
M 1403 2484 
Q 997 2584 770 2862 
Q 544 3141 544 3541 
Q 544 4100 942 4425 
Q 1341 4750 2034 4750 
Q 2731 4750 3128 4425 
Q 3525 4100 3525 3541 
Q 3525 3141 3298 2862 
Q 3072 2584 2669 2484 
Q 3125 2378 3379 2068 
Q 3634 1759 3634 1313 
Q 3634 634 3220 271 
Q 2806 -91 2034 -91 
Q 1263 -91 848 271 
Q 434 634 434 1313 
Q 434 1759 690 2068 
Q 947 2378 1403 2484 
z
M 1172 3481 
Q 1172 3119 1398 2916 
Q 1625 2713 2034 2713 
Q 2441 2713 2670 2916 
Q 2900 3119 2900 3481 
Q 2900 3844 2670 4047 
Q 2441 4250 2034 4250 
Q 1625 4250 1398 4047 
Q 1172 3844 1172 3481 
z
" transform="scale(0.015625)"/>
       </defs>
       <use xlink:href="#DejaVuSans-38"/>
       <use xlink:href="#DejaVuSans-30" transform="translate(63.623047 0)"/>
      </g>
     </g>
    </g>
    <g id="xtick_6">
     <g id="line2d_6">
      <g>
       <use xlink:href="#mbbf749083a" x="366.563551" y="185.998281" style="stroke: #000000; stroke-width: 0.8"/>
      </g>
     </g>
     <g id="text_6">
      <!-- 100 -->
      <g transform="translate(357.974176 199.836875) scale(0.09 -0.09)">
       <defs>
        <path id="DejaVuSans-31" d="M 794 531 
L 1825 531 
L 1825 4091 
L 703 3866 
L 703 4441 
L 1819 4666 
L 2450 4666 
L 2450 531 
L 3481 531 
L 3481 0 
L 794 0 
L 794 531 
z
" transform="scale(0.015625)"/>
       </defs>
       <use xlink:href="#DejaVuSans-31"/>
       <use xlink:href="#DejaVuSans-30" transform="translate(63.623047 0)"/>
       <use xlink:href="#DejaVuSans-30" transform="translate(127.246094 0)"/>
      </g>
     </g>
    </g>
    <g id="text_7">
     <!-- k -->
     <g transform="translate(211.931875 213.307031) scale(0.1 -0.1)">
      <defs>
       <path id="DejaVuSans-6b" d="M 581 4863 
L 1159 4863 
L 1159 1991 
L 2875 3500 
L 3609 3500 
L 1753 1863 
L 3688 0 
L 2938 0 
L 1159 1709 
L 1159 0 
L 581 0 
L 581 4863 
z
" transform="scale(0.015625)"/>
      </defs>
      <use xlink:href="#DejaVuSans-6b"/>
     </g>
    </g>
   </g>
   <g id="matplotlib.axis_2">
    <g id="ytick_1">
     <g id="line2d_7">
      <defs>
       <path id="m324157544a" d="M 0 0 
L -3.5 0 
" style="stroke: #000000; stroke-width: 0.8"/>
      </defs>
      <g>
       <use xlink:href="#m324157544a" x="47.917188" y="185.998281" style="stroke: #000000; stroke-width: 0.8"/>
      </g>
     </g>
     <g id="text_8">
      <!-- 0.00 -->
      <g transform="translate(20.878125 189.417578) scale(0.09 -0.09)">
       <defs>
        <path id="DejaVuSans-2e" d="M 684 794 
L 1344 794 
L 1344 0 
L 684 0 
L 684 794 
z
" transform="scale(0.015625)"/>
       </defs>
       <use xlink:href="#DejaVuSans-30"/>
       <use xlink:href="#DejaVuSans-2e" transform="translate(63.623047 0)"/>
       <use xlink:href="#DejaVuSans-30" transform="translate(95.410156 0)"/>
       <use xlink:href="#DejaVuSans-30" transform="translate(159.033203 0)"/>
      </g>
     </g>
    </g>
    <g id="ytick_2">
     <g id="line2d_8">
      <g>
       <use xlink:href="#m324157544a" x="47.917188" y="164.744048" style="stroke: #000000; stroke-width: 0.8"/>
      </g>
     </g>
     <g id="text_9">
      <!-- 0.02 -->
      <g transform="translate(20.878125 168.163345) scale(0.09 -0.09)">
       <use xlink:href="#DejaVuSans-30"/>
       <use xlink:href="#DejaVuSans-2e" transform="translate(63.623047 0)"/>
       <use xlink:href="#DejaVuSans-30" transform="translate(95.410156 0)"/>
       <use xlink:href="#DejaVuSans-32" transform="translate(159.033203 0)"/>
      </g>
     </g>
    </g>
    <g id="ytick_3">
     <g id="line2d_9">
      <g>
       <use xlink:href="#m324157544a" x="47.917188" y="143.489816" style="stroke: #000000; stroke-width: 0.8"/>
      </g>
     </g>
     <g id="text_10">
      <!-- 0.04 -->
      <g transform="translate(20.878125 146.909112) scale(0.09 -0.09)">
       <use xlink:href="#DejaVuSans-30"/>
       <use xlink:href="#DejaVuSans-2e" transform="translate(63.623047 0)"/>
       <use xlink:href="#DejaVuSans-30" transform="translate(95.410156 0)"/>
       <use xlink:href="#DejaVuSans-34" transform="translate(159.033203 0)"/>
      </g>
     </g>
    </g>
    <g id="ytick_4">
     <g id="line2d_10">
      <g>
       <use xlink:href="#m324157544a" x="47.917188" y="122.235583" style="stroke: #000000; stroke-width: 0.8"/>
      </g>
     </g>
     <g id="text_11">
      <!-- 0.06 -->
      <g transform="translate(20.878125 125.65488) scale(0.09 -0.09)">
       <use xlink:href="#DejaVuSans-30"/>
       <use xlink:href="#DejaVuSans-2e" transform="translate(63.623047 0)"/>
       <use xlink:href="#DejaVuSans-30" transform="translate(95.410156 0)"/>
       <use xlink:href="#DejaVuSans-36" transform="translate(159.033203 0)"/>
      </g>
     </g>
    </g>
    <g id="ytick_5">
     <g id="line2d_11">
      <g>
       <use xlink:href="#m324157544a" x="47.917188" y="100.98135" style="stroke: #000000; stroke-width: 0.8"/>
      </g>
     </g>
     <g id="text_12">
      <!-- 0.08 -->
      <g transform="translate(20.878125 104.400647) scale(0.09 -0.09)">
       <use xlink:href="#DejaVuSans-30"/>
       <use xlink:href="#DejaVuSans-2e" transform="translate(63.623047 0)"/>
       <use xlink:href="#DejaVuSans-30" transform="translate(95.410156 0)"/>
       <use xlink:href="#DejaVuSans-38" transform="translate(159.033203 0)"/>
      </g>
     </g>
    </g>
    <g id="ytick_6">
     <g id="line2d_12">
      <g>
       <use xlink:href="#m324157544a" x="47.917188" y="79.727117" style="stroke: #000000; stroke-width: 0.8"/>
      </g>
     </g>
     <g id="text_13">
      <!-- 0.10 -->
      <g transform="translate(20.878125 83.146414) scale(0.09 -0.09)">
       <use xlink:href="#DejaVuSans-30"/>
       <use xlink:href="#DejaVuSans-2e" transform="translate(63.623047 0)"/>
       <use xlink:href="#DejaVuSans-31" transform="translate(95.410156 0)"/>
       <use xlink:href="#DejaVuSans-30" transform="translate(159.033203 0)"/>
      </g>
     </g>
    </g>
    <g id="ytick_7">
     <g id="line2d_13">
      <g>
       <use xlink:href="#m324157544a" x="47.917188" y="58.472884" style="stroke: #000000; stroke-width: 0.8"/>
      </g>
     </g>
     <g id="text_14">
      <!-- 0.12 -->
      <g transform="translate(20.878125 61.892181) scale(0.09 -0.09)">
       <use xlink:href="#DejaVuSans-30"/>
       <use xlink:href="#DejaVuSans-2e" transform="translate(63.623047 0)"/>
       <use xlink:href="#DejaVuSans-31" transform="translate(95.410156 0)"/>
       <use xlink:href="#DejaVuSans-32" transform="translate(159.033203 0)"/>
      </g>
     </g>
    </g>
    <g id="ytick_8">
     <g id="line2d_14">
      <g>
       <use xlink:href="#m324157544a" x="47.917188" y="37.218651" style="stroke: #000000; stroke-width: 0.8"/>
      </g>
     </g>
     <g id="text_15">
      <!-- 0.14 -->
      <g transform="translate(20.878125 40.637948) scale(0.09 -0.09)">
       <use xlink:href="#DejaVuSans-30"/>
       <use xlink:href="#DejaVuSans-2e" transform="translate(63.623047 0)"/>
       <use xlink:href="#DejaVuSans-31" transform="translate(95.410156 0)"/>
       <use xlink:href="#DejaVuSans-34" transform="translate(159.033203 0)"/>
      </g>
     </g>
    </g>
    <g id="text_16">
     <!-- P(X = k) -->
     <g transform="translate(14.798438 124.382969) rotate(-90) scale(0.1 -0.1)">
      <defs>
       <path id="DejaVuSans-50" d="M 1259 4147 
L 1259 2394 
L 2053 2394 
Q 2494 2394 2734 2622 
Q 2975 2850 2975 3272 
Q 2975 3691 2734 3919 
Q 2494 4147 2053 4147 
L 1259 4147 
z
M 628 4666 
L 2053 4666 
Q 2838 4666 3239 4311 
Q 3641 3956 3641 3272 
Q 3641 2581 3239 2228 
Q 2838 1875 2053 1875 
L 1259 1875 
L 1259 0 
L 628 0 
L 628 4666 
z
" transform="scale(0.015625)"/>
       <path id="DejaVuSans-28" d="M 1984 4856 
Q 1566 4138 1362 3434 
Q 1159 2731 1159 2009 
Q 1159 1288 1364 580 
Q 1569 -128 1984 -844 
L 1484 -844 
Q 1016 -109 783 600 
Q 550 1309 550 2009 
Q 550 2706 781 3412 
Q 1013 4119 1484 4856 
L 1984 4856 
z
" transform="scale(0.015625)"/>
       <path id="DejaVuSans-58" d="M 403 4666 
L 1081 4666 
L 2241 2931 
L 3406 4666 
L 4084 4666 
L 2584 2425 
L 4184 0 
L 3506 0 
L 2194 1984 
L 872 0 
L 191 0 
L 1856 2491 
L 403 4666 
z
" transform="scale(0.015625)"/>
       <path id="DejaVuSans-20" transform="scale(0.015625)"/>
       <path id="DejaVuSans-3d" d="M 678 2906 
L 4684 2906 
L 4684 2381 
L 678 2381 
L 678 2906 
z
M 678 1631 
L 4684 1631 
L 4684 1100 
L 678 1100 
L 678 1631 
z
" transform="scale(0.015625)"/>
       <path id="DejaVuSans-29" d="M 513 4856 
L 1013 4856 
Q 1481 4119 1714 3412 
Q 1947 2706 1947 2009 
Q 1947 1309 1714 600 
Q 1481 -109 1013 -844 
L 513 -844 
Q 928 -128 1133 580 
Q 1338 1288 1338 2009 
Q 1338 2731 1133 3434 
Q 928 4138 513 4856 
z
" transform="scale(0.015625)"/>
      </defs>
      <use xlink:href="#DejaVuSans-50"/>
      <use xlink:href="#DejaVuSans-28" transform="translate(60.302734 0)"/>
      <use xlink:href="#DejaVuSans-58" transform="translate(99.316406 0)"/>
      <use xlink:href="#DejaVuSans-20" transform="translate(167.822266 0)"/>
      <use xlink:href="#DejaVuSans-3d" transform="translate(199.609375 0)"/>
      <use xlink:href="#DejaVuSans-20" transform="translate(283.398438 0)"/>
      <use xlink:href="#DejaVuSans-6b" transform="translate(315.185547 0)"/>
      <use xlink:href="#DejaVuSans-29" transform="translate(373.095703 0)"/>
     </g>
    </g>
   </g>
   <g id="line2d_15">
    <path d="M 63.090824 185.990459 
L 66.125551 185.886852 
L 69.160278 185.230461 
L 72.195006 182.587682 
L 75.229733 175.017404 
L 78.26446 158.679097 
L 81.299188 131.321543 
L 84.333915 95.504889 
L 87.368642 59.642458 
L 90.403369 34.88751 
L 93.438097 29.388757 
L 96.472824 44.02037 
L 99.507551 72.553224 
L 102.542278 105.60831 
L 105.577006 135.218196 
L 108.611733 157.283186 
L 111.64646 171.410268 
L 114.681188 179.320389 
L 117.715915 183.236997 
L 120.750642 184.964818 
L 123.785369 185.647602 
L 126.820097 185.890255 
L 129.854824 185.968041 
L 132.889551 185.990583 
L 135.924278 185.996498 
L 138.959006 185.997905 
L 141.993733 185.998209 
L 145.02846 185.998269 
L 148.063188 185.998279 
L 151.097915 185.998281 
L 154.132642 185.998281 
L 157.167369 185.998281 
L 160.202097 185.998281 
L 163.236824 185.998281 
L 166.271551 185.998281 
L 169.306278 185.998281 
L 172.341006 185.998281 
L 175.375733 185.998281 
L 178.41046 185.998281 
L 181.445188 185.998281 
L 184.479915 185.998281 
L 187.514642 185.998281 
L 190.549369 185.998281 
L 193.584097 185.998281 
L 196.618824 185.998281 
L 199.653551 185.998281 
L 202.688278 185.998281 
L 205.723006 185.998281 
L 208.757733 185.998281 
L 211.79246 185.998281 
L 214.827188 185.998281 
" clip-path="url(#p85b5e4caa5)" style="fill: none; stroke: #2563eb; stroke-width: 1.3; stroke-linecap: square"/>
    <defs>
     <path id="ma9aa287513" d="M 0 1.5 
C 0.397805 1.5 0.77937 1.341951 1.06066 1.06066 
C 1.341951 0.77937 1.5 0.397805 1.5 0 
C 1.5 -0.397805 1.341951 -0.77937 1.06066 -1.06066 
C 0.77937 -1.341951 0.397805 -1.5 0 -1.5 
C -0.397805 -1.5 -0.77937 -1.341951 -1.06066 -1.06066 
C -1.341951 -0.77937 -1.5 -0.397805 -1.5 0 
C -1.5 0.397805 -1.341951 0.77937 -1.06066 1.06066 
C -0.77937 1.341951 -0.397805 1.5 0 1.5 
z
" style="stroke: #2563eb"/>
    </defs>
    <g clip-path="url(#p85b5e4caa5)">
     <use xlink:href="#ma9aa287513" x="63.090824" y="185.990459" style="fill: #2563eb; stroke: #2563eb"/>
     <use xlink:href="#ma9aa287513" x="66.125551" y="185.886852" style="fill: #2563eb; stroke: #2563eb"/>
     <use xlink:href="#ma9aa287513" x="69.160278" y="185.230461" style="fill: #2563eb; stroke: #2563eb"/>
     <use xlink:href="#ma9aa287513" x="72.195006" y="182.587682" style="fill: #2563eb; stroke: #2563eb"/>
     <use xlink:href="#ma9aa287513" x="75.229733" y="175.017404" style="fill: #2563eb; stroke: #2563eb"/>
     <use xlink:href="#ma9aa287513" x="78.26446" y="158.679097" style="fill: #2563eb; stroke: #2563eb"/>
     <use xlink:href="#ma9aa287513" x="81.299188" y="131.321543" style="fill: #2563eb; stroke: #2563eb"/>
     <use xlink:href="#ma9aa287513" x="84.333915" y="95.504889" style="fill: #2563eb; stroke: #2563eb"/>
     <use xlink:href="#ma9aa287513" x="87.368642" y="59.642458" style="fill: #2563eb; stroke: #2563eb"/>
     <use xlink:href="#ma9aa287513" x="90.403369" y="34.88751" style="fill: #2563eb; stroke: #2563eb"/>
     <use xlink:href="#ma9aa287513" x="93.438097" y="29.388757" style="fill: #2563eb; stroke: #2563eb"/>
     <use xlink:href="#ma9aa287513" x="96.472824" y="44.02037" style="fill: #2563eb; stroke: #2563eb"/>
     <use xlink:href="#ma9aa287513" x="99.507551" y="72.553224" style="fill: #2563eb; stroke: #2563eb"/>
     <use xlink:href="#ma9aa287513" x="102.542278" y="105.60831" style="fill: #2563eb; stroke: #2563eb"/>
     <use xlink:href="#ma9aa287513" x="105.577006" y="135.218196" style="fill: #2563eb; stroke: #2563eb"/>
     <use xlink:href="#ma9aa287513" x="108.611733" y="157.283186" style="fill: #2563eb; stroke: #2563eb"/>
     <use xlink:href="#ma9aa287513" x="111.64646" y="171.410268" style="fill: #2563eb; stroke: #2563eb"/>
     <use xlink:href="#ma9aa287513" x="114.681188" y="179.320389" style="fill: #2563eb; stroke: #2563eb"/>
     <use xlink:href="#ma9aa287513" x="117.715915" y="183.236997" style="fill: #2563eb; stroke: #2563eb"/>
     <use xlink:href="#ma9aa287513" x="120.750642" y="184.964818" style="fill: #2563eb; stroke: #2563eb"/>
     <use xlink:href="#ma9aa287513" x="123.785369" y="185.647602" style="fill: #2563eb; stroke: #2563eb"/>
     <use xlink:href="#ma9aa287513" x="126.820097" y="185.890255" style="fill: #2563eb; stroke: #2563eb"/>
     <use xlink:href="#ma9aa287513" x="129.854824" y="185.968041" style="fill: #2563eb; stroke: #2563eb"/>
     <use xlink:href="#ma9aa287513" x="132.889551" y="185.990583" style="fill: #2563eb; stroke: #2563eb"/>
     <use xlink:href="#ma9aa287513" x="135.924278" y="185.996498" style="fill: #2563eb; stroke: #2563eb"/>
     <use xlink:href="#ma9aa287513" x="138.959006" y="185.997905" style="fill: #2563eb; stroke: #2563eb"/>
     <use xlink:href="#ma9aa287513" x="141.993733" y="185.998209" style="fill: #2563eb; stroke: #2563eb"/>
     <use xlink:href="#ma9aa287513" x="145.02846" y="185.998269" style="fill: #2563eb; stroke: #2563eb"/>
     <use xlink:href="#ma9aa287513" x="148.063188" y="185.998279" style="fill: #2563eb; stroke: #2563eb"/>
     <use xlink:href="#ma9aa287513" x="151.097915" y="185.998281" style="fill: #2563eb; stroke: #2563eb"/>
     <use xlink:href="#ma9aa287513" x="154.132642" y="185.998281" style="fill: #2563eb; stroke: #2563eb"/>
     <use xlink:href="#ma9aa287513" x="157.167369" y="185.998281" style="fill: #2563eb; stroke: #2563eb"/>
     <use xlink:href="#ma9aa287513" x="160.202097" y="185.998281" style="fill: #2563eb; stroke: #2563eb"/>
     <use xlink:href="#ma9aa287513" x="163.236824" y="185.998281" style="fill: #2563eb; stroke: #2563eb"/>
     <use xlink:href="#ma9aa287513" x="166.271551" y="185.998281" style="fill: #2563eb; stroke: #2563eb"/>
     <use xlink:href="#ma9aa287513" x="169.306278" y="185.998281" style="fill: #2563eb; stroke: #2563eb"/>
     <use xlink:href="#ma9aa287513" x="172.341006" y="185.998281" style="fill: #2563eb; stroke: #2563eb"/>
     <use xlink:href="#ma9aa287513" x="175.375733" y="185.998281" style="fill: #2563eb; stroke: #2563eb"/>
     <use xlink:href="#ma9aa287513" x="178.41046" y="185.998281" style="fill: #2563eb; stroke: #2563eb"/>
     <use xlink:href="#ma9aa287513" x="181.445188" y="185.998281" style="fill: #2563eb; stroke: #2563eb"/>
     <use xlink:href="#ma9aa287513" x="184.479915" y="185.998281" style="fill: #2563eb; stroke: #2563eb"/>
     <use xlink:href="#ma9aa287513" x="187.514642" y="185.998281" style="fill: #2563eb; stroke: #2563eb"/>
     <use xlink:href="#ma9aa287513" x="190.549369" y="185.998281" style="fill: #2563eb; stroke: #2563eb"/>
     <use xlink:href="#ma9aa287513" x="193.584097" y="185.998281" style="fill: #2563eb; stroke: #2563eb"/>
     <use xlink:href="#ma9aa287513" x="196.618824" y="185.998281" style="fill: #2563eb; stroke: #2563eb"/>
     <use xlink:href="#ma9aa287513" x="199.653551" y="185.998281" style="fill: #2563eb; stroke: #2563eb"/>
     <use xlink:href="#ma9aa287513" x="202.688278" y="185.998281" style="fill: #2563eb; stroke: #2563eb"/>
     <use xlink:href="#ma9aa287513" x="205.723006" y="185.998281" style="fill: #2563eb; stroke: #2563eb"/>
     <use xlink:href="#ma9aa287513" x="208.757733" y="185.998281" style="fill: #2563eb; stroke: #2563eb"/>
     <use xlink:href="#ma9aa287513" x="211.79246" y="185.998281" style="fill: #2563eb; stroke: #2563eb"/>
     <use xlink:href="#ma9aa287513" x="214.827188" y="185.998281" style="fill: #2563eb; stroke: #2563eb"/>
    </g>
   </g>
   <g id="line2d_16">
    <path d="M 63.090824 185.998281 
L 66.125551 185.998281 
L 69.160278 185.998281 
L 72.195006 185.998281 
L 75.229733 185.99828 
L 78.26446 185.998274 
L 81.299188 185.998229 
L 84.333915 185.997963 
L 87.368642 185.996639 
L 90.403369 185.990963 
L 93.438097 185.969767 
L 96.472824 185.90017 
L 99.507551 185.697814 
L 102.542278 185.173893 
L 105.577006 183.960725 
L 108.611733 181.440547 
L 111.64646 176.73482 
L 114.681188 168.832572 
L 117.715915 156.911941 
L 120.750642 140.817223 
L 123.785369 121.519698 
L 126.820097 101.297351 
L 129.854824 83.413758 
L 132.889551 71.288128 
L 135.924278 67.431868 
L 138.959006 72.604048 
L 141.993733 85.573227 
L 145.02846 103.585377 
L 148.063188 123.299018 
L 151.097915 141.760781 
L 154.132642 157.047295 
L 157.167369 168.422989 
L 160.202097 176.102083 
L 163.236824 180.831036 
L 166.271551 183.497303 
L 169.306278 184.876804 
L 172.341006 185.532692 
L 175.375733 185.819478 
L 178.41046 185.934827 
L 181.445188 185.977497 
L 184.479915 185.992007 
L 187.514642 185.996539 
L 190.549369 185.997837 
L 193.584097 185.998177 
L 196.618824 185.998259 
L 199.653551 185.998277 
L 202.688278 185.99828 
L 205.723006 185.998281 
L 208.757733 185.998281 
L 211.79246 185.998281 
L 214.827188 185.998281 
L 217.861915 185.998281 
L 220.896642 185.998281 
L 223.931369 185.998281 
L 226.966097 185.998281 
L 230.000824 185.998281 
L 233.035551 185.998281 
L 236.070278 185.998281 
L 239.105006 185.998281 
L 242.139733 185.998281 
L 245.17446 185.998281 
" clip-path="url(#p85b5e4caa5)" style="fill: none; stroke: #dc2626; stroke-width: 1.3; stroke-linecap: square"/>
    <defs>
     <path id="ma9f45d1366" d="M 0 1.5 
C 0.397805 1.5 0.77937 1.341951 1.06066 1.06066 
C 1.341951 0.77937 1.5 0.397805 1.5 0 
C 1.5 -0.397805 1.341951 -0.77937 1.06066 -1.06066 
C 0.77937 -1.341951 0.397805 -1.5 0 -1.5 
C -0.397805 -1.5 -0.77937 -1.341951 -1.06066 -1.06066 
C -1.341951 -0.77937 -1.5 -0.397805 -1.5 0 
C -1.5 0.397805 -1.341951 0.77937 -1.06066 1.06066 
C -0.77937 1.341951 -0.397805 1.5 0 1.5 
z
" style="stroke: #dc2626"/>
    </defs>
    <g clip-path="url(#p85b5e4caa5)">
     <use xlink:href="#ma9f45d1366" x="63.090824" y="185.998281" style="fill: #dc2626; stroke: #dc2626"/>
     <use xlink:href="#ma9f45d1366" x="66.125551" y="185.998281" style="fill: #dc2626; stroke: #dc2626"/>
     <use xlink:href="#ma9f45d1366" x="69.160278" y="185.998281" style="fill: #dc2626; stroke: #dc2626"/>
     <use xlink:href="#ma9f45d1366" x="72.195006" y="185.998281" style="fill: #dc2626; stroke: #dc2626"/>
     <use xlink:href="#ma9f45d1366" x="75.229733" y="185.99828" style="fill: #dc2626; stroke: #dc2626"/>
     <use xlink:href="#ma9f45d1366" x="78.26446" y="185.998274" style="fill: #dc2626; stroke: #dc2626"/>
     <use xlink:href="#ma9f45d1366" x="81.299188" y="185.998229" style="fill: #dc2626; stroke: #dc2626"/>
     <use xlink:href="#ma9f45d1366" x="84.333915" y="185.997963" style="fill: #dc2626; stroke: #dc2626"/>
     <use xlink:href="#ma9f45d1366" x="87.368642" y="185.996639" style="fill: #dc2626; stroke: #dc2626"/>
     <use xlink:href="#ma9f45d1366" x="90.403369" y="185.990963" style="fill: #dc2626; stroke: #dc2626"/>
     <use xlink:href="#ma9f45d1366" x="93.438097" y="185.969767" style="fill: #dc2626; stroke: #dc2626"/>
     <use xlink:href="#ma9f45d1366" x="96.472824" y="185.90017" style="fill: #dc2626; stroke: #dc2626"/>
     <use xlink:href="#ma9f45d1366" x="99.507551" y="185.697814" style="fill: #dc2626; stroke: #dc2626"/>
     <use xlink:href="#ma9f45d1366" x="102.542278" y="185.173893" style="fill: #dc2626; stroke: #dc2626"/>
     <use xlink:href="#ma9f45d1366" x="105.577006" y="183.960725" style="fill: #dc2626; stroke: #dc2626"/>
     <use xlink:href="#ma9f45d1366" x="108.611733" y="181.440547" style="fill: #dc2626; stroke: #dc2626"/>
     <use xlink:href="#ma9f45d1366" x="111.64646" y="176.73482" style="fill: #dc2626; stroke: #dc2626"/>
     <use xlink:href="#ma9f45d1366" x="114.681188" y="168.832572" style="fill: #dc2626; stroke: #dc2626"/>
     <use xlink:href="#ma9f45d1366" x="117.715915" y="156.911941" style="fill: #dc2626; stroke: #dc2626"/>
     <use xlink:href="#ma9f45d1366" x="120.750642" y="140.817223" style="fill: #dc2626; stroke: #dc2626"/>
     <use xlink:href="#ma9f45d1366" x="123.785369" y="121.519698" style="fill: #dc2626; stroke: #dc2626"/>
     <use xlink:href="#ma9f45d1366" x="126.820097" y="101.297351" style="fill: #dc2626; stroke: #dc2626"/>
     <use xlink:href="#ma9f45d1366" x="129.854824" y="83.413758" style="fill: #dc2626; stroke: #dc2626"/>
     <use xlink:href="#ma9f45d1366" x="132.889551" y="71.288128" style="fill: #dc2626; stroke: #dc2626"/>
     <use xlink:href="#ma9f45d1366" x="135.924278" y="67.431868" style="fill: #dc2626; stroke: #dc2626"/>
     <use xlink:href="#ma9f45d1366" x="138.959006" y="72.604048" style="fill: #dc2626; stroke: #dc2626"/>
     <use xlink:href="#ma9f45d1366" x="141.993733" y="85.573227" style="fill: #dc2626; stroke: #dc2626"/>
     <use xlink:href="#ma9f45d1366" x="145.02846" y="103.585377" style="fill: #dc2626; stroke: #dc2626"/>
     <use xlink:href="#ma9f45d1366" x="148.063188" y="123.299018" style="fill: #dc2626; stroke: #dc2626"/>
     <use xlink:href="#ma9f45d1366" x="151.097915" y="141.760781" style="fill: #dc2626; stroke: #dc2626"/>
     <use xlink:href="#ma9f45d1366" x="154.132642" y="157.047295" style="fill: #dc2626; stroke: #dc2626"/>
     <use xlink:href="#ma9f45d1366" x="157.167369" y="168.422989" style="fill: #dc2626; stroke: #dc2626"/>
     <use xlink:href="#ma9f45d1366" x="160.202097" y="176.102083" style="fill: #dc2626; stroke: #dc2626"/>
     <use xlink:href="#ma9f45d1366" x="163.236824" y="180.831036" style="fill: #dc2626; stroke: #dc2626"/>
     <use xlink:href="#ma9f45d1366" x="166.271551" y="183.497303" style="fill: #dc2626; stroke: #dc2626"/>
     <use xlink:href="#ma9f45d1366" x="169.306278" y="184.876804" style="fill: #dc2626; stroke: #dc2626"/>
     <use xlink:href="#ma9f45d1366" x="172.341006" y="185.532692" style="fill: #dc2626; stroke: #dc2626"/>
     <use xlink:href="#ma9f45d1366" x="175.375733" y="185.819478" style="fill: #dc2626; stroke: #dc2626"/>
     <use xlink:href="#ma9f45d1366" x="178.41046" y="185.934827" style="fill: #dc2626; stroke: #dc2626"/>
     <use xlink:href="#ma9f45d1366" x="181.445188" y="185.977497" style="fill: #dc2626; stroke: #dc2626"/>
     <use xlink:href="#ma9f45d1366" x="184.479915" y="185.992007" style="fill: #dc2626; stroke: #dc2626"/>
     <use xlink:href="#ma9f45d1366" x="187.514642" y="185.996539" style="fill: #dc2626; stroke: #dc2626"/>
     <use xlink:href="#ma9f45d1366" x="190.549369" y="185.997837" style="fill: #dc2626; stroke: #dc2626"/>
     <use xlink:href="#ma9f45d1366" x="193.584097" y="185.998177" style="fill: #dc2626; stroke: #dc2626"/>
     <use xlink:href="#ma9f45d1366" x="196.618824" y="185.998259" style="fill: #dc2626; stroke: #dc2626"/>
     <use xlink:href="#ma9f45d1366" x="199.653551" y="185.998277" style="fill: #dc2626; stroke: #dc2626"/>
     <use xlink:href="#ma9f45d1366" x="202.688278" y="185.99828" style="fill: #dc2626; stroke: #dc2626"/>
     <use xlink:href="#ma9f45d1366" x="205.723006" y="185.998281" style="fill: #dc2626; stroke: #dc2626"/>
     <use xlink:href="#ma9f45d1366" x="208.757733" y="185.998281" style="fill: #dc2626; stroke: #dc2626"/>
     <use xlink:href="#ma9f45d1366" x="211.79246" y="185.998281" style="fill: #dc2626; stroke: #dc2626"/>
     <use xlink:href="#ma9f45d1366" x="214.827188" y="185.998281" style="fill: #dc2626; stroke: #dc2626"/>
     <use xlink:href="#ma9f45d1366" x="217.861915" y="185.998281" style="fill: #dc2626; stroke: #dc2626"/>
     <use xlink:href="#ma9f45d1366" x="220.896642" y="185.998281" style="fill: #dc2626; stroke: #dc2626"/>
     <use xlink:href="#ma9f45d1366" x="223.931369" y="185.998281" style="fill: #dc2626; stroke: #dc2626"/>
     <use xlink:href="#ma9f45d1366" x="226.966097" y="185.998281" style="fill: #dc2626; stroke: #dc2626"/>
     <use xlink:href="#ma9f45d1366" x="230.000824" y="185.998281" style="fill: #dc2626; stroke: #dc2626"/>
     <use xlink:href="#ma9f45d1366" x="233.035551" y="185.998281" style="fill: #dc2626; stroke: #dc2626"/>
     <use xlink:href="#ma9f45d1366" x="236.070278" y="185.998281" style="fill: #dc2626; stroke: #dc2626"/>
     <use xlink:href="#ma9f45d1366" x="239.105006" y="185.998281" style="fill: #dc2626; stroke: #dc2626"/>
     <use xlink:href="#ma9f45d1366" x="242.139733" y="185.998281" style="fill: #dc2626; stroke: #dc2626"/>
     <use xlink:href="#ma9f45d1366" x="245.17446" y="185.998281" style="fill: #dc2626; stroke: #dc2626"/>
    </g>
   </g>
   <g id="line2d_17">
    <path d="M 63.090824 185.998281 
L 66.125551 185.998281 
L 69.160278 185.998281 
L 72.195006 185.998281 
L 75.229733 185.998281 
L 78.26446 185.998281 
L 81.299188 185.998281 
L 84.333915 185.998281 
L 87.368642 185.998281 
L 90.403369 185.998281 
L 93.438097 185.998281 
L 96.472824 185.998281 
L 99.507551 185.998281 
L 102.542278 185.998281 
L 105.577006 185.998281 
L 108.611733 185.998281 
L 111.64646 185.998281 
L 114.681188 185.998281 
L 117.715915 185.998281 
L 120.750642 185.998281 
L 123.785369 185.998281 
L 126.820097 185.998281 
L 129.854824 185.998281 
L 132.889551 185.998281 
L 135.924278 185.998281 
L 138.959006 185.998281 
L 141.993733 185.998281 
L 145.02846 185.998281 
L 148.063188 185.998281 
L 151.097915 185.998281 
L 154.132642 185.998281 
L 157.167369 185.998281 
L 160.202097 185.998281 
L 163.236824 185.998281 
L 166.271551 185.998281 
L 169.306278 185.998281 
L 172.341006 185.998281 
L 175.375733 185.998281 
L 178.41046 185.998281 
L 181.445188 185.998281 
L 184.479915 185.998281 
L 187.514642 185.998281 
L 190.549369 185.998281 
L 193.584097 185.998281 
L 196.618824 185.998281 
L 199.653551 185.998281 
L 202.688278 185.998281 
L 205.723006 185.998281 
L 208.757733 185.998281 
L 211.79246 185.998281 
L 214.827188 185.998281 
L 217.861915 185.998281 
L 220.896642 185.998281 
L 223.931369 185.998281 
L 226.966097 185.998281 
L 230.000824 185.998281 
L 233.035551 185.998281 
L 236.070278 185.99828 
L 239.105006 185.998275 
L 242.139733 185.998253 
L 245.17446 185.998173 
L 248.209188 185.997887 
L 251.243915 185.996924 
L 254.278642 185.99389 
L 257.313369 185.984914 
L 260.348097 185.96001 
L 263.382824 185.895268 
L 266.417551 185.737683 
L 269.452278 185.378967 
L 272.487006 184.616303 
L 275.521733 183.104307 
L 278.55646 180.314816 
L 281.591188 175.53803 
L 284.625915 167.971081 
L 287.660642 156.932878 
L 290.695369 142.20124 
L 293.730097 124.389736 
L 296.764824 105.197463 
L 299.799551 87.334692 
L 302.834278 74.007757 
L 305.869006 68.040761 
L 308.903733 70.935314 
L 311.93846 82.280756 
L 314.973188 99.820445 
L 318.007915 120.180203 
L 321.042642 139.939291 
L 324.077369 156.573088 
L 327.112097 168.908421 
L 330.146824 177.018602 
L 333.181551 181.753878 
L 336.216278 184.205676 
L 339.251006 185.327218 
L 342.285733 185.777791 
L 345.32046 185.935466 
L 348.355188 185.983004 
L 351.389915 185.995173 
L 354.424642 185.997767 
L 357.459369 185.998215 
L 360.494097 185.998275 
L 363.528824 185.998281 
L 366.563551 185.998281 
" clip-path="url(#p85b5e4caa5)" style="fill: none; stroke: #16a34a; stroke-width: 1.3; stroke-linecap: square"/>
    <defs>
     <path id="mae32285712" d="M 0 1.5 
C 0.397805 1.5 0.77937 1.341951 1.06066 1.06066 
C 1.341951 0.77937 1.5 0.397805 1.5 0 
C 1.5 -0.397805 1.341951 -0.77937 1.06066 -1.06066 
C 0.77937 -1.341951 0.397805 -1.5 0 -1.5 
C -0.397805 -1.5 -0.77937 -1.341951 -1.06066 -1.06066 
C -1.341951 -0.77937 -1.5 -0.397805 -1.5 0 
C -1.5 0.397805 -1.341951 0.77937 -1.06066 1.06066 
C -0.77937 1.341951 -0.397805 1.5 0 1.5 
z
" style="stroke: #16a34a"/>
    </defs>
    <g clip-path="url(#p85b5e4caa5)">
     <use xlink:href="#mae32285712" x="63.090824" y="185.998281" style="fill: #16a34a; stroke: #16a34a"/>
     <use xlink:href="#mae32285712" x="66.125551" y="185.998281" style="fill: #16a34a; stroke: #16a34a"/>
     <use xlink:href="#mae32285712" x="69.160278" y="185.998281" style="fill: #16a34a; stroke: #16a34a"/>
     <use xlink:href="#mae32285712" x="72.195006" y="185.998281" style="fill: #16a34a; stroke: #16a34a"/>
     <use xlink:href="#mae32285712" x="75.229733" y="185.998281" style="fill: #16a34a; stroke: #16a34a"/>
     <use xlink:href="#mae32285712" x="78.26446" y="185.998281" style="fill: #16a34a; stroke: #16a34a"/>
     <use xlink:href="#mae32285712" x="81.299188" y="185.998281" style="fill: #16a34a; stroke: #16a34a"/>
     <use xlink:href="#mae32285712" x="84.333915" y="185.998281" style="fill: #16a34a; stroke: #16a34a"/>
     <use xlink:href="#mae32285712" x="87.368642" y="185.998281" style="fill: #16a34a; stroke: #16a34a"/>
     <use xlink:href="#mae32285712" x="90.403369" y="185.998281" style="fill: #16a34a; stroke: #16a34a"/>
     <use xlink:href="#mae32285712" x="93.438097" y="185.998281" style="fill: #16a34a; stroke: #16a34a"/>
     <use xlink:href="#mae32285712" x="96.472824" y="185.998281" style="fill: #16a34a; stroke: #16a34a"/>
     <use xlink:href="#mae32285712" x="99.507551" y="185.998281" style="fill: #16a34a; stroke: #16a34a"/>
     <use xlink:href="#mae32285712" x="102.542278" y="185.998281" style="fill: #16a34a; stroke: #16a34a"/>
     <use xlink:href="#mae32285712" x="105.577006" y="185.998281" style="fill: #16a34a; stroke: #16a34a"/>
     <use xlink:href="#mae32285712" x="108.611733" y="185.998281" style="fill: #16a34a; stroke: #16a34a"/>
     <use xlink:href="#mae32285712" x="111.64646" y="185.998281" style="fill: #16a34a; stroke: #16a34a"/>
     <use xlink:href="#mae32285712" x="114.681188" y="185.998281" style="fill: #16a34a; stroke: #16a34a"/>
     <use xlink:href="#mae32285712" x="117.715915" y="185.998281" style="fill: #16a34a; stroke: #16a34a"/>
     <use xlink:href="#mae32285712" x="120.750642" y="185.998281" style="fill: #16a34a; stroke: #16a34a"/>
     <use xlink:href="#mae32285712" x="123.785369" y="185.998281" style="fill: #16a34a; stroke: #16a34a"/>
     <use xlink:href="#mae32285712" x="126.820097" y="185.998281" style="fill: #16a34a; stroke: #16a34a"/>
     <use xlink:href="#mae32285712" x="129.854824" y="185.998281" style="fill: #16a34a; stroke: #16a34a"/>
     <use xlink:href="#mae32285712" x="132.889551" y="185.998281" style="fill: #16a34a; stroke: #16a34a"/>
     <use xlink:href="#mae32285712" x="135.924278" y="185.998281" style="fill: #16a34a; stroke: #16a34a"/>
     <use xlink:href="#mae32285712" x="138.959006" y="185.998281" style="fill: #16a34a; stroke: #16a34a"/>
     <use xlink:href="#mae32285712" x="141.993733" y="185.998281" style="fill: #16a34a; stroke: #16a34a"/>
     <use xlink:href="#mae32285712" x="145.02846" y="185.998281" style="fill: #16a34a; stroke: #16a34a"/>
     <use xlink:href="#mae32285712" x="148.063188" y="185.998281" style="fill: #16a34a; stroke: #16a34a"/>
     <use xlink:href="#mae32285712" x="151.097915" y="185.998281" style="fill: #16a34a; stroke: #16a34a"/>
     <use xlink:href="#mae32285712" x="154.132642" y="185.998281" style="fill: #16a34a; stroke: #16a34a"/>
     <use xlink:href="#mae32285712" x="157.167369" y="185.998281" style="fill: #16a34a; stroke: #16a34a"/>
     <use xlink:href="#mae32285712" x="160.202097" y="185.998281" style="fill: #16a34a; stroke: #16a34a"/>
     <use xlink:href="#mae32285712" x="163.236824" y="185.998281" style="fill: #16a34a; stroke: #16a34a"/>
     <use xlink:href="#mae32285712" x="166.271551" y="185.998281" style="fill: #16a34a; stroke: #16a34a"/>
     <use xlink:href="#mae32285712" x="169.306278" y="185.998281" style="fill: #16a34a; stroke: #16a34a"/>
     <use xlink:href="#mae32285712" x="172.341006" y="185.998281" style="fill: #16a34a; stroke: #16a34a"/>
     <use xlink:href="#mae32285712" x="175.375733" y="185.998281" style="fill: #16a34a; stroke: #16a34a"/>
     <use xlink:href="#mae32285712" x="178.41046" y="185.998281" style="fill: #16a34a; stroke: #16a34a"/>
     <use xlink:href="#mae32285712" x="181.445188" y="185.998281" style="fill: #16a34a; stroke: #16a34a"/>
     <use xlink:href="#mae32285712" x="184.479915" y="185.998281" style="fill: #16a34a; stroke: #16a34a"/>
     <use xlink:href="#mae32285712" x="187.514642" y="185.998281" style="fill: #16a34a; stroke: #16a34a"/>
     <use xlink:href="#mae32285712" x="190.549369" y="185.998281" style="fill: #16a34a; stroke: #16a34a"/>
     <use xlink:href="#mae32285712" x="193.584097" y="185.998281" style="fill: #16a34a; stroke: #16a34a"/>
     <use xlink:href="#mae32285712" x="196.618824" y="185.998281" style="fill: #16a34a; stroke: #16a34a"/>
     <use xlink:href="#mae32285712" x="199.653551" y="185.998281" style="fill: #16a34a; stroke: #16a34a"/>
     <use xlink:href="#mae32285712" x="202.688278" y="185.998281" style="fill: #16a34a; stroke: #16a34a"/>
     <use xlink:href="#mae32285712" x="205.723006" y="185.998281" style="fill: #16a34a; stroke: #16a34a"/>
     <use xlink:href="#mae32285712" x="208.757733" y="185.998281" style="fill: #16a34a; stroke: #16a34a"/>
     <use xlink:href="#mae32285712" x="211.79246" y="185.998281" style="fill: #16a34a; stroke: #16a34a"/>
     <use xlink:href="#mae32285712" x="214.827188" y="185.998281" style="fill: #16a34a; stroke: #16a34a"/>
     <use xlink:href="#mae32285712" x="217.861915" y="185.998281" style="fill: #16a34a; stroke: #16a34a"/>
     <use xlink:href="#mae32285712" x="220.896642" y="185.998281" style="fill: #16a34a; stroke: #16a34a"/>
     <use xlink:href="#mae32285712" x="223.931369" y="185.998281" style="fill: #16a34a; stroke: #16a34a"/>
     <use xlink:href="#mae32285712" x="226.966097" y="185.998281" style="fill: #16a34a; stroke: #16a34a"/>
     <use xlink:href="#mae32285712" x="230.000824" y="185.998281" style="fill: #16a34a; stroke: #16a34a"/>
     <use xlink:href="#mae32285712" x="233.035551" y="185.998281" style="fill: #16a34a; stroke: #16a34a"/>
     <use xlink:href="#mae32285712" x="236.070278" y="185.99828" style="fill: #16a34a; stroke: #16a34a"/>
     <use xlink:href="#mae32285712" x="239.105006" y="185.998275" style="fill: #16a34a; stroke: #16a34a"/>
     <use xlink:href="#mae32285712" x="242.139733" y="185.998253" style="fill: #16a34a; stroke: #16a34a"/>
     <use xlink:href="#mae32285712" x="245.17446" y="185.998173" style="fill: #16a34a; stroke: #16a34a"/>
     <use xlink:href="#mae32285712" x="248.209188" y="185.997887" style="fill: #16a34a; stroke: #16a34a"/>
     <use xlink:href="#mae32285712" x="251.243915" y="185.996924" style="fill: #16a34a; stroke: #16a34a"/>
     <use xlink:href="#mae32285712" x="254.278642" y="185.99389" style="fill: #16a34a; stroke: #16a34a"/>
     <use xlink:href="#mae32285712" x="257.313369" y="185.984914" style="fill: #16a34a; stroke: #16a34a"/>
     <use xlink:href="#mae32285712" x="260.348097" y="185.96001" style="fill: #16a34a; stroke: #16a34a"/>
     <use xlink:href="#mae32285712" x="263.382824" y="185.895268" style="fill: #16a34a; stroke: #16a34a"/>
     <use xlink:href="#mae32285712" x="266.417551" y="185.737683" style="fill: #16a34a; stroke: #16a34a"/>
     <use xlink:href="#mae32285712" x="269.452278" y="185.378967" style="fill: #16a34a; stroke: #16a34a"/>
     <use xlink:href="#mae32285712" x="272.487006" y="184.616303" style="fill: #16a34a; stroke: #16a34a"/>
     <use xlink:href="#mae32285712" x="275.521733" y="183.104307" style="fill: #16a34a; stroke: #16a34a"/>
     <use xlink:href="#mae32285712" x="278.55646" y="180.314816" style="fill: #16a34a; stroke: #16a34a"/>
     <use xlink:href="#mae32285712" x="281.591188" y="175.53803" style="fill: #16a34a; stroke: #16a34a"/>
     <use xlink:href="#mae32285712" x="284.625915" y="167.971081" style="fill: #16a34a; stroke: #16a34a"/>
     <use xlink:href="#mae32285712" x="287.660642" y="156.932878" style="fill: #16a34a; stroke: #16a34a"/>
     <use xlink:href="#mae32285712" x="290.695369" y="142.20124" style="fill: #16a34a; stroke: #16a34a"/>
     <use xlink:href="#mae32285712" x="293.730097" y="124.389736" style="fill: #16a34a; stroke: #16a34a"/>
     <use xlink:href="#mae32285712" x="296.764824" y="105.197463" style="fill: #16a34a; stroke: #16a34a"/>
     <use xlink:href="#mae32285712" x="299.799551" y="87.334692" style="fill: #16a34a; stroke: #16a34a"/>
     <use xlink:href="#mae32285712" x="302.834278" y="74.007757" style="fill: #16a34a; stroke: #16a34a"/>
     <use xlink:href="#mae32285712" x="305.869006" y="68.040761" style="fill: #16a34a; stroke: #16a34a"/>
     <use xlink:href="#mae32285712" x="308.903733" y="70.935314" style="fill: #16a34a; stroke: #16a34a"/>
     <use xlink:href="#mae32285712" x="311.93846" y="82.280756" style="fill: #16a34a; stroke: #16a34a"/>
     <use xlink:href="#mae32285712" x="314.973188" y="99.820445" style="fill: #16a34a; stroke: #16a34a"/>
     <use xlink:href="#mae32285712" x="318.007915" y="120.180203" style="fill: #16a34a; stroke: #16a34a"/>
     <use xlink:href="#mae32285712" x="321.042642" y="139.939291" style="fill: #16a34a; stroke: #16a34a"/>
     <use xlink:href="#mae32285712" x="324.077369" y="156.573088" style="fill: #16a34a; stroke: #16a34a"/>
     <use xlink:href="#mae32285712" x="327.112097" y="168.908421" style="fill: #16a34a; stroke: #16a34a"/>
     <use xlink:href="#mae32285712" x="330.146824" y="177.018602" style="fill: #16a34a; stroke: #16a34a"/>
     <use xlink:href="#mae32285712" x="333.181551" y="181.753878" style="fill: #16a34a; stroke: #16a34a"/>
     <use xlink:href="#mae32285712" x="336.216278" y="184.205676" style="fill: #16a34a; stroke: #16a34a"/>
     <use xlink:href="#mae32285712" x="339.251006" y="185.327218" style="fill: #16a34a; stroke: #16a34a"/>
     <use xlink:href="#mae32285712" x="342.285733" y="185.777791" style="fill: #16a34a; stroke: #16a34a"/>
     <use xlink:href="#mae32285712" x="345.32046" y="185.935466" style="fill: #16a34a; stroke: #16a34a"/>
     <use xlink:href="#mae32285712" x="348.355188" y="185.983004" style="fill: #16a34a; stroke: #16a34a"/>
     <use xlink:href="#mae32285712" x="351.389915" y="185.995173" style="fill: #16a34a; stroke: #16a34a"/>
     <use xlink:href="#mae32285712" x="354.424642" y="185.997767" style="fill: #16a34a; stroke: #16a34a"/>
     <use xlink:href="#mae32285712" x="357.459369" y="185.998215" style="fill: #16a34a; stroke: #16a34a"/>
     <use xlink:href="#mae32285712" x="360.494097" y="185.998275" style="fill: #16a34a; stroke: #16a34a"/>
     <use xlink:href="#mae32285712" x="363.528824" y="185.998281" style="fill: #16a34a; stroke: #16a34a"/>
     <use xlink:href="#mae32285712" x="366.563551" y="185.998281" style="fill: #16a34a; stroke: #16a34a"/>
    </g>
   </g>
   <g id="patch_3">
    <path d="M 47.917188 185.998281 
L 47.917188 21.558281 
" style="fill: none; stroke: #000000; stroke-width: 0.8; stroke-linejoin: miter; stroke-linecap: square"/>
   </g>
   <g id="patch_4">
    <path d="M 47.917188 185.998281 
L 381.737188 185.998281 
" style="fill: none; stroke: #000000; stroke-width: 0.8; stroke-linejoin: miter; stroke-linecap: square"/>
   </g>
   <g id="text_17">
    <!-- Hypergeometric Distribution PMF -->
    <g transform="translate(110.762031 15.558281) scale(0.11 -0.11)">
     <defs>
      <path id="DejaVuSans-Bold-48" d="M 588 4666 
L 1791 4666 
L 1791 2888 
L 3566 2888 
L 3566 4666 
L 4769 4666 
L 4769 0 
L 3566 0 
L 3566 1978 
L 1791 1978 
L 1791 0 
L 588 0 
L 588 4666 
z
" transform="scale(0.015625)"/>
      <path id="DejaVuSans-Bold-79" d="M 78 3500 
L 1197 3500 
L 2138 1125 
L 2938 3500 
L 4056 3500 
L 2584 -331 
Q 2363 -916 2067 -1148 
Q 1772 -1381 1288 -1381 
L 641 -1381 
L 641 -647 
L 991 -647 
Q 1275 -647 1404 -556 
Q 1534 -466 1606 -231 
L 1638 -134 
L 78 3500 
z
" transform="scale(0.015625)"/>
      <path id="DejaVuSans-Bold-70" d="M 1656 506 
L 1656 -1331 
L 538 -1331 
L 538 3500 
L 1656 3500 
L 1656 2988 
Q 1888 3294 2169 3439 
Q 2450 3584 2816 3584 
Q 3463 3584 3878 3070 
Q 4294 2556 4294 1747 
Q 4294 938 3878 423 
Q 3463 -91 2816 -91 
Q 2450 -91 2169 54 
Q 1888 200 1656 506 
z
M 2400 2772 
Q 2041 2772 1848 2508 
Q 1656 2244 1656 1747 
Q 1656 1250 1848 986 
Q 2041 722 2400 722 
Q 2759 722 2948 984 
Q 3138 1247 3138 1747 
Q 3138 2247 2948 2509 
Q 2759 2772 2400 2772 
z
" transform="scale(0.015625)"/>
      <path id="DejaVuSans-Bold-65" d="M 4031 1759 
L 4031 1441 
L 1416 1441 
Q 1456 1047 1700 850 
Q 1944 653 2381 653 
Q 2734 653 3104 758 
Q 3475 863 3866 1075 
L 3866 213 
Q 3469 63 3072 -14 
Q 2675 -91 2278 -91 
Q 1328 -91 801 392 
Q 275 875 275 1747 
Q 275 2603 792 3093 
Q 1309 3584 2216 3584 
Q 3041 3584 3536 3087 
Q 4031 2591 4031 1759 
z
M 2881 2131 
Q 2881 2450 2695 2645 
Q 2509 2841 2209 2841 
Q 1884 2841 1681 2658 
Q 1478 2475 1428 2131 
L 2881 2131 
z
" transform="scale(0.015625)"/>
      <path id="DejaVuSans-Bold-72" d="M 3138 2547 
Q 2991 2616 2845 2648 
Q 2700 2681 2553 2681 
Q 2122 2681 1889 2404 
Q 1656 2128 1656 1613 
L 1656 0 
L 538 0 
L 538 3500 
L 1656 3500 
L 1656 2925 
Q 1872 3269 2151 3426 
Q 2431 3584 2822 3584 
Q 2878 3584 2943 3579 
Q 3009 3575 3134 3559 
L 3138 2547 
z
" transform="scale(0.015625)"/>
      <path id="DejaVuSans-Bold-67" d="M 2919 594 
Q 2688 288 2409 144 
Q 2131 0 1766 0 
Q 1125 0 706 504 
Q 288 1009 288 1791 
Q 288 2575 706 3076 
Q 1125 3578 1766 3578 
Q 2131 3578 2409 3434 
Q 2688 3291 2919 2981 
L 2919 3500 
L 4044 3500 
L 4044 353 
Q 4044 -491 3511 -936 
Q 2978 -1381 1966 -1381 
Q 1638 -1381 1331 -1331 
Q 1025 -1281 716 -1178 
L 716 -306 
Q 1009 -475 1290 -558 
Q 1572 -641 1856 -641 
Q 2406 -641 2662 -400 
Q 2919 -159 2919 353 
L 2919 594 
z
M 2181 2772 
Q 1834 2772 1640 2515 
Q 1447 2259 1447 1791 
Q 1447 1309 1634 1061 
Q 1822 813 2181 813 
Q 2531 813 2725 1069 
Q 2919 1325 2919 1791 
Q 2919 2259 2725 2515 
Q 2531 2772 2181 2772 
z
" transform="scale(0.015625)"/>
      <path id="DejaVuSans-Bold-6f" d="M 2203 2784 
Q 1831 2784 1636 2517 
Q 1441 2250 1441 1747 
Q 1441 1244 1636 976 
Q 1831 709 2203 709 
Q 2569 709 2762 976 
Q 2956 1244 2956 1747 
Q 2956 2250 2762 2517 
Q 2569 2784 2203 2784 
z
M 2203 3584 
Q 3106 3584 3614 3096 
Q 4122 2609 4122 1747 
Q 4122 884 3614 396 
Q 3106 -91 2203 -91 
Q 1297 -91 786 396 
Q 275 884 275 1747 
Q 275 2609 786 3096 
Q 1297 3584 2203 3584 
z
" transform="scale(0.015625)"/>
      <path id="DejaVuSans-Bold-6d" d="M 3781 2919 
Q 3994 3244 4286 3414 
Q 4578 3584 4928 3584 
Q 5531 3584 5847 3212 
Q 6163 2841 6163 2131 
L 6163 0 
L 5038 0 
L 5038 1825 
Q 5041 1866 5042 1909 
Q 5044 1953 5044 2034 
Q 5044 2406 4934 2573 
Q 4825 2741 4581 2741 
Q 4263 2741 4089 2478 
Q 3916 2216 3909 1719 
L 3909 0 
L 2784 0 
L 2784 1825 
Q 2784 2406 2684 2573 
Q 2584 2741 2328 2741 
Q 2006 2741 1831 2477 
Q 1656 2213 1656 1722 
L 1656 0 
L 531 0 
L 531 3500 
L 1656 3500 
L 1656 2988 
Q 1863 3284 2130 3434 
Q 2397 3584 2719 3584 
Q 3081 3584 3359 3409 
Q 3638 3234 3781 2919 
z
" transform="scale(0.015625)"/>
      <path id="DejaVuSans-Bold-74" d="M 1759 4494 
L 1759 3500 
L 2913 3500 
L 2913 2700 
L 1759 2700 
L 1759 1216 
Q 1759 972 1856 886 
Q 1953 800 2241 800 
L 2816 800 
L 2816 0 
L 1856 0 
Q 1194 0 917 276 
Q 641 553 641 1216 
L 641 2700 
L 84 2700 
L 84 3500 
L 641 3500 
L 641 4494 
L 1759 4494 
z
" transform="scale(0.015625)"/>
      <path id="DejaVuSans-Bold-69" d="M 538 3500 
L 1656 3500 
L 1656 0 
L 538 0 
L 538 3500 
z
M 538 4863 
L 1656 4863 
L 1656 3950 
L 538 3950 
L 538 4863 
z
" transform="scale(0.015625)"/>
      <path id="DejaVuSans-Bold-63" d="M 3366 3391 
L 3366 2478 
Q 3138 2634 2908 2709 
Q 2678 2784 2431 2784 
Q 1963 2784 1702 2511 
Q 1441 2238 1441 1747 
Q 1441 1256 1702 982 
Q 1963 709 2431 709 
Q 2694 709 2930 787 
Q 3166 866 3366 1019 
L 3366 103 
Q 3103 6 2833 -42 
Q 2563 -91 2291 -91 
Q 1344 -91 809 395 
Q 275 881 275 1747 
Q 275 2613 809 3098 
Q 1344 3584 2291 3584 
Q 2566 3584 2833 3536 
Q 3100 3488 3366 3391 
z
" transform="scale(0.015625)"/>
      <path id="DejaVuSans-Bold-20" transform="scale(0.015625)"/>
      <path id="DejaVuSans-Bold-44" d="M 1791 3756 
L 1791 909 
L 2222 909 
Q 2959 909 3348 1275 
Q 3738 1641 3738 2338 
Q 3738 3031 3350 3393 
Q 2963 3756 2222 3756 
L 1791 3756 
z
M 588 4666 
L 1856 4666 
Q 2919 4666 3439 4514 
Q 3959 4363 4331 4000 
Q 4659 3684 4818 3271 
Q 4978 2859 4978 2338 
Q 4978 1809 4818 1395 
Q 4659 981 4331 666 
Q 3956 303 3431 151 
Q 2906 0 1856 0 
L 588 0 
L 588 4666 
z
" transform="scale(0.015625)"/>
      <path id="DejaVuSans-Bold-73" d="M 3272 3391 
L 3272 2541 
Q 2913 2691 2578 2766 
Q 2244 2841 1947 2841 
Q 1628 2841 1473 2761 
Q 1319 2681 1319 2516 
Q 1319 2381 1436 2309 
Q 1553 2238 1856 2203 
L 2053 2175 
Q 2913 2066 3209 1816 
Q 3506 1566 3506 1031 
Q 3506 472 3093 190 
Q 2681 -91 1863 -91 
Q 1516 -91 1145 -36 
Q 775 19 384 128 
L 384 978 
Q 719 816 1070 734 
Q 1422 653 1784 653 
Q 2113 653 2278 743 
Q 2444 834 2444 1013 
Q 2444 1163 2330 1236 
Q 2216 1309 1875 1350 
L 1678 1375 
Q 931 1469 631 1722 
Q 331 1975 331 2491 
Q 331 3047 712 3315 
Q 1094 3584 1881 3584 
Q 2191 3584 2531 3537 
Q 2872 3491 3272 3391 
z
" transform="scale(0.015625)"/>
      <path id="DejaVuSans-Bold-62" d="M 2400 722 
Q 2759 722 2948 984 
Q 3138 1247 3138 1747 
Q 3138 2247 2948 2509 
Q 2759 2772 2400 2772 
Q 2041 2772 1848 2508 
Q 1656 2244 1656 1747 
Q 1656 1250 1848 986 
Q 2041 722 2400 722 
z
M 1656 2988 
Q 1888 3294 2169 3439 
Q 2450 3584 2816 3584 
Q 3463 3584 3878 3070 
Q 4294 2556 4294 1747 
Q 4294 938 3878 423 
Q 3463 -91 2816 -91 
Q 2450 -91 2169 54 
Q 1888 200 1656 506 
L 1656 0 
L 538 0 
L 538 4863 
L 1656 4863 
L 1656 2988 
z
" transform="scale(0.015625)"/>
      <path id="DejaVuSans-Bold-75" d="M 500 1363 
L 500 3500 
L 1625 3500 
L 1625 3150 
Q 1625 2866 1622 2436 
Q 1619 2006 1619 1863 
Q 1619 1441 1641 1255 
Q 1663 1069 1716 984 
Q 1784 875 1895 815 
Q 2006 756 2150 756 
Q 2500 756 2700 1025 
Q 2900 1294 2900 1772 
L 2900 3500 
L 4019 3500 
L 4019 0 
L 2900 0 
L 2900 506 
Q 2647 200 2364 54 
Q 2081 -91 1741 -91 
Q 1134 -91 817 281 
Q 500 653 500 1363 
z
" transform="scale(0.015625)"/>
      <path id="DejaVuSans-Bold-6e" d="M 4056 2131 
L 4056 0 
L 2931 0 
L 2931 347 
L 2931 1631 
Q 2931 2084 2911 2256 
Q 2891 2428 2841 2509 
Q 2775 2619 2662 2680 
Q 2550 2741 2406 2741 
Q 2056 2741 1856 2470 
Q 1656 2200 1656 1722 
L 1656 0 
L 538 0 
L 538 3500 
L 1656 3500 
L 1656 2988 
Q 1909 3294 2193 3439 
Q 2478 3584 2822 3584 
Q 3428 3584 3742 3212 
Q 4056 2841 4056 2131 
z
" transform="scale(0.015625)"/>
      <path id="DejaVuSans-Bold-50" d="M 588 4666 
L 2584 4666 
Q 3475 4666 3951 4270 
Q 4428 3875 4428 3144 
Q 4428 2409 3951 2014 
Q 3475 1619 2584 1619 
L 1791 1619 
L 1791 0 
L 588 0 
L 588 4666 
z
M 1791 3794 
L 1791 2491 
L 2456 2491 
Q 2806 2491 2997 2661 
Q 3188 2831 3188 3144 
Q 3188 3456 2997 3625 
Q 2806 3794 2456 3794 
L 1791 3794 
z
" transform="scale(0.015625)"/>
      <path id="DejaVuSans-Bold-4d" d="M 588 4666 
L 2119 4666 
L 3181 2169 
L 4250 4666 
L 5778 4666 
L 5778 0 
L 4641 0 
L 4641 3413 
L 3566 897 
L 2803 897 
L 1728 3413 
L 1728 0 
L 588 0 
L 588 4666 
z
" transform="scale(0.015625)"/>
      <path id="DejaVuSans-Bold-46" d="M 588 4666 
L 3834 4666 
L 3834 3756 
L 1791 3756 
L 1791 2888 
L 3713 2888 
L 3713 1978 
L 1791 1978 
L 1791 0 
L 588 0 
L 588 4666 
z
" transform="scale(0.015625)"/>
     </defs>
     <use xlink:href="#DejaVuSans-Bold-48"/>
     <use xlink:href="#DejaVuSans-Bold-79" transform="translate(83.691406 0)"/>
     <use xlink:href="#DejaVuSans-Bold-70" transform="translate(148.876953 0)"/>
     <use xlink:href="#DejaVuSans-Bold-65" transform="translate(220.458984 0)"/>
     <use xlink:href="#DejaVuSans-Bold-72" transform="translate(288.28125 0)"/>
     <use xlink:href="#DejaVuSans-Bold-67" transform="translate(337.597656 0)"/>
     <use xlink:href="#DejaVuSans-Bold-65" transform="translate(409.179688 0)"/>
     <use xlink:href="#DejaVuSans-Bold-6f" transform="translate(477.001953 0)"/>
     <use xlink:href="#DejaVuSans-Bold-6d" transform="translate(545.703125 0)"/>
     <use xlink:href="#DejaVuSans-Bold-65" transform="translate(649.902344 0)"/>
     <use xlink:href="#DejaVuSans-Bold-74" transform="translate(717.724609 0)"/>
     <use xlink:href="#DejaVuSans-Bold-72" transform="translate(765.527344 0)"/>
     <use xlink:href="#DejaVuSans-Bold-69" transform="translate(814.84375 0)"/>
     <use xlink:href="#DejaVuSans-Bold-63" transform="translate(849.121094 0)"/>
     <use xlink:href="#DejaVuSans-Bold-20" transform="translate(908.398438 0)"/>
     <use xlink:href="#DejaVuSans-Bold-44" transform="translate(943.212891 0)"/>
     <use xlink:href="#DejaVuSans-Bold-69" transform="translate(1026.220703 0)"/>
     <use xlink:href="#DejaVuSans-Bold-73" transform="translate(1060.498047 0)"/>
     <use xlink:href="#DejaVuSans-Bold-74" transform="translate(1120.019531 0)"/>
     <use xlink:href="#DejaVuSans-Bold-72" transform="translate(1167.822266 0)"/>
     <use xlink:href="#DejaVuSans-Bold-69" transform="translate(1217.138672 0)"/>
     <use xlink:href="#DejaVuSans-Bold-62" transform="translate(1251.416016 0)"/>
     <use xlink:href="#DejaVuSans-Bold-75" transform="translate(1322.998047 0)"/>
     <use xlink:href="#DejaVuSans-Bold-74" transform="translate(1394.189453 0)"/>
     <use xlink:href="#DejaVuSans-Bold-69" transform="translate(1441.992188 0)"/>
     <use xlink:href="#DejaVuSans-Bold-6f" transform="translate(1476.269531 0)"/>
     <use xlink:href="#DejaVuSans-Bold-6e" transform="translate(1544.970703 0)"/>
     <use xlink:href="#DejaVuSans-Bold-20" transform="translate(1616.162109 0)"/>
     <use xlink:href="#DejaVuSans-Bold-50" transform="translate(1650.976562 0)"/>
     <use xlink:href="#DejaVuSans-Bold-4d" transform="translate(1724.267578 0)"/>
     <use xlink:href="#DejaVuSans-Bold-46" transform="translate(1823.779297 0)"/>
    </g>
   </g>
   <g id="legend_1">
    <g id="line2d_18">
     <path d="M 267.369219 31.382109 
L 274.869219 31.382109 
L 282.369219 31.382109 
" style="fill: none; stroke: #2563eb; stroke-width: 1.3; stroke-linecap: square"/>
     <g>
      <use xlink:href="#ma9aa287513" x="274.869219" y="31.382109" style="fill: #2563eb; stroke: #2563eb"/>
     </g>
    </g>
    <g id="text_18">
     <!-- N=500, K=50, n=100 -->
     <g transform="translate(288.369219 34.007109) scale(0.075 -0.075)">
      <defs>
       <path id="DejaVuSans-4e" d="M 628 4666 
L 1478 4666 
L 3547 763 
L 3547 4666 
L 4159 4666 
L 4159 0 
L 3309 0 
L 1241 3903 
L 1241 0 
L 628 0 
L 628 4666 
z
" transform="scale(0.015625)"/>
       <path id="DejaVuSans-35" d="M 691 4666 
L 3169 4666 
L 3169 4134 
L 1269 4134 
L 1269 2991 
Q 1406 3038 1543 3061 
Q 1681 3084 1819 3084 
Q 2600 3084 3056 2656 
Q 3513 2228 3513 1497 
Q 3513 744 3044 326 
Q 2575 -91 1722 -91 
Q 1428 -91 1123 -41 
Q 819 9 494 109 
L 494 744 
Q 775 591 1075 516 
Q 1375 441 1709 441 
Q 2250 441 2565 725 
Q 2881 1009 2881 1497 
Q 2881 1984 2565 2268 
Q 2250 2553 1709 2553 
Q 1456 2553 1204 2497 
Q 953 2441 691 2322 
L 691 4666 
z
" transform="scale(0.015625)"/>
       <path id="DejaVuSans-2c" d="M 750 794 
L 1409 794 
L 1409 256 
L 897 -744 
L 494 -744 
L 750 256 
L 750 794 
z
" transform="scale(0.015625)"/>
       <path id="DejaVuSans-4b" d="M 628 4666 
L 1259 4666 
L 1259 2694 
L 3353 4666 
L 4166 4666 
L 1850 2491 
L 4331 0 
L 3500 0 
L 1259 2247 
L 1259 0 
L 628 0 
L 628 4666 
z
" transform="scale(0.015625)"/>
       <path id="DejaVuSans-6e" d="M 3513 2113 
L 3513 0 
L 2938 0 
L 2938 2094 
Q 2938 2591 2744 2837 
Q 2550 3084 2163 3084 
Q 1697 3084 1428 2787 
Q 1159 2491 1159 1978 
L 1159 0 
L 581 0 
L 581 3500 
L 1159 3500 
L 1159 2956 
Q 1366 3272 1645 3428 
Q 1925 3584 2291 3584 
Q 2894 3584 3203 3211 
Q 3513 2838 3513 2113 
z
" transform="scale(0.015625)"/>
      </defs>
      <use xlink:href="#DejaVuSans-4e"/>
      <use xlink:href="#DejaVuSans-3d" transform="translate(74.804688 0)"/>
      <use xlink:href="#DejaVuSans-35" transform="translate(158.59375 0)"/>
      <use xlink:href="#DejaVuSans-30" transform="translate(222.216797 0)"/>
      <use xlink:href="#DejaVuSans-30" transform="translate(285.839844 0)"/>
      <use xlink:href="#DejaVuSans-2c" transform="translate(349.462891 0)"/>
      <use xlink:href="#DejaVuSans-20" transform="translate(381.25 0)"/>
      <use xlink:href="#DejaVuSans-4b" transform="translate(413.037109 0)"/>
      <use xlink:href="#DejaVuSans-3d" transform="translate(478.613281 0)"/>
      <use xlink:href="#DejaVuSans-35" transform="translate(562.402344 0)"/>
      <use xlink:href="#DejaVuSans-30" transform="translate(626.025391 0)"/>
      <use xlink:href="#DejaVuSans-2c" transform="translate(689.648438 0)"/>
      <use xlink:href="#DejaVuSans-20" transform="translate(721.435547 0)"/>
      <use xlink:href="#DejaVuSans-6e" transform="translate(753.222656 0)"/>
      <use xlink:href="#DejaVuSans-3d" transform="translate(816.601562 0)"/>
      <use xlink:href="#DejaVuSans-31" transform="translate(900.390625 0)"/>
      <use xlink:href="#DejaVuSans-30" transform="translate(964.013672 0)"/>
      <use xlink:href="#DejaVuSans-30" transform="translate(1027.636719 0)"/>
     </g>
    </g>
    <g id="line2d_19">
     <path d="M 267.369219 42.390703 
L 274.869219 42.390703 
L 282.369219 42.390703 
" style="fill: none; stroke: #dc2626; stroke-width: 1.3; stroke-linecap: square"/>
     <g>
      <use xlink:href="#ma9f45d1366" x="274.869219" y="42.390703" style="fill: #dc2626; stroke: #dc2626"/>
     </g>
    </g>
    <g id="text_19">
     <!-- N=500, K=60, n=200 -->
     <g transform="translate(288.369219 45.015703) scale(0.075 -0.075)">
      <use xlink:href="#DejaVuSans-4e"/>
      <use xlink:href="#DejaVuSans-3d" transform="translate(74.804688 0)"/>
      <use xlink:href="#DejaVuSans-35" transform="translate(158.59375 0)"/>
      <use xlink:href="#DejaVuSans-30" transform="translate(222.216797 0)"/>
      <use xlink:href="#DejaVuSans-30" transform="translate(285.839844 0)"/>
      <use xlink:href="#DejaVuSans-2c" transform="translate(349.462891 0)"/>
      <use xlink:href="#DejaVuSans-20" transform="translate(381.25 0)"/>
      <use xlink:href="#DejaVuSans-4b" transform="translate(413.037109 0)"/>
      <use xlink:href="#DejaVuSans-3d" transform="translate(478.613281 0)"/>
      <use xlink:href="#DejaVuSans-36" transform="translate(562.402344 0)"/>
      <use xlink:href="#DejaVuSans-30" transform="translate(626.025391 0)"/>
      <use xlink:href="#DejaVuSans-2c" transform="translate(689.648438 0)"/>
      <use xlink:href="#DejaVuSans-20" transform="translate(721.435547 0)"/>
      <use xlink:href="#DejaVuSans-6e" transform="translate(753.222656 0)"/>
      <use xlink:href="#DejaVuSans-3d" transform="translate(816.601562 0)"/>
      <use xlink:href="#DejaVuSans-32" transform="translate(900.390625 0)"/>
      <use xlink:href="#DejaVuSans-30" transform="translate(964.013672 0)"/>
      <use xlink:href="#DejaVuSans-30" transform="translate(1027.636719 0)"/>
     </g>
    </g>
    <g id="line2d_20">
     <path d="M 267.369219 53.399297 
L 274.869219 53.399297 
L 282.369219 53.399297 
" style="fill: none; stroke: #16a34a; stroke-width: 1.3; stroke-linecap: square"/>
     <g>
      <use xlink:href="#mae32285712" x="274.869219" y="53.399297" style="fill: #16a34a; stroke: #16a34a"/>
     </g>
    </g>
    <g id="text_20">
     <!-- N=500, K=400, n=100 -->
     <g transform="translate(288.369219 56.024297) scale(0.075 -0.075)">
      <use xlink:href="#DejaVuSans-4e"/>
      <use xlink:href="#DejaVuSans-3d" transform="translate(74.804688 0)"/>
      <use xlink:href="#DejaVuSans-35" transform="translate(158.59375 0)"/>
      <use xlink:href="#DejaVuSans-30" transform="translate(222.216797 0)"/>
      <use xlink:href="#DejaVuSans-30" transform="translate(285.839844 0)"/>
      <use xlink:href="#DejaVuSans-2c" transform="translate(349.462891 0)"/>
      <use xlink:href="#DejaVuSans-20" transform="translate(381.25 0)"/>
      <use xlink:href="#DejaVuSans-4b" transform="translate(413.037109 0)"/>
      <use xlink:href="#DejaVuSans-3d" transform="translate(478.613281 0)"/>
      <use xlink:href="#DejaVuSans-34" transform="translate(562.402344 0)"/>
      <use xlink:href="#DejaVuSans-30" transform="translate(626.025391 0)"/>
      <use xlink:href="#DejaVuSans-30" transform="translate(689.648438 0)"/>
      <use xlink:href="#DejaVuSans-2c" transform="translate(753.271484 0)"/>
      <use xlink:href="#DejaVuSans-20" transform="translate(785.058594 0)"/>
      <use xlink:href="#DejaVuSans-6e" transform="translate(816.845703 0)"/>
      <use xlink:href="#DejaVuSans-3d" transform="translate(880.224609 0)"/>
      <use xlink:href="#DejaVuSans-31" transform="translate(964.013672 0)"/>
      <use xlink:href="#DejaVuSans-30" transform="translate(1027.636719 0)"/>
      <use xlink:href="#DejaVuSans-30" transform="translate(1091.259766 0)"/>
     </g>
    </g>
   </g>
  </g>
 </g>
 <defs>
  <clipPath id="p85b5e4caa5">
   <rect x="47.917188" y="21.558281" width="333.82" height="164.44"/>
  </clipPath>
 </defs>
</svg>
