<?xml version="1.0" encoding="utf-8" standalone="no"?>
<!DOCTYPE svg PUBLIC "-//W3C//DTD SVG 1.1//EN"
  "http://www.w3.org/Graphics/SVG/1.1/DTD/svg11.dtd">
<svg xmlns:xlink="http://www.w3.org/1999/xlink" width="388.910937pt" height="222.586719pt" viewBox="0 0 388.910937 222.586719" xmlns="http://www.w3.org/2000/svg" version="1.1">
 <metadata>
  <rdf:RDF xmlns:dc="http://purl.org/dc/elements/1.1/" xmlns:cc="http://creativecommons.org/ns#" xmlns:rdf="http://www.w3.org/1999/02/22-rdf-syntax-ns#">
   <cc:Work>
    <dc:type rdf:resource="http://purl.org/dc/dcmitype/StillImage"/>
    <dc:date>2026-05-29T04:30:07.966534</dc:date>
    <dc:format>image/svg+xml</dc:format>
    <dc:creator>
     <cc:Agent>
      <dc:title>Matplotlib v3.10.9, https://matplotlib.org/</dc:title>
     </cc:Agent>
    </dc:creator>
   </cc:Work>
  </rdf:RDF>
 </metadata>
 <defs>
  <style type="text/css">*{stroke-linejoin: round; stroke-linecap: butt}</style>
 </defs>
 <g id="figure_1">
  <g id="patch_1">
   <path d="M 0 222.586719 
L 388.910937 222.586719 
L 388.910937 0 
L 0 0 
L 0 222.586719 
z
" style="fill: none"/>
  </g>
  <g id="axes_1">
   <g id="patch_2">
    <path d="M 42.190938 185.998281 
L 381.710938 185.998281 
L 381.710938 21.558281 
L 42.190938 21.558281 
L 42.190938 185.998281 
z
" style="fill: none"/>
   </g>
   <g id="matplotlib.axis_1">
    <g id="xtick_1">
     <g id="line2d_1">
      <defs>
       <path id="mb32097b9be" d="M 0 0 
L 0 3.5 
" style="stroke: #000000; stroke-width: 0.8"/>
      </defs>
      <g>
       <use xlink:href="#mb32097b9be" x="49.907301" y="185.998281" style="stroke: #000000; stroke-width: 0.8"/>
      </g>
     </g>
     <g id="text_1">
      <!-- 0.0 -->
      <g transform="translate(42.750895 199.836875) scale(0.09 -0.09)">
       <defs>
        <path id="DejaVuSans-30" d="M 2034 4250 
Q 1547 4250 1301 3770 
Q 1056 3291 1056 2328 
Q 1056 1369 1301 889 
Q 1547 409 2034 409 
Q 2525 409 2770 889 
Q 3016 1369 3016 2328 
Q 3016 3291 2770 3770 
Q 2525 4250 2034 4250 
z
M 2034 4750 
Q 2819 4750 3233 4129 
Q 3647 3509 3647 2328 
Q 3647 1150 3233 529 
Q 2819 -91 2034 -91 
Q 1250 -91 836 529 
Q 422 1150 422 2328 
Q 422 3509 836 4129 
Q 1250 4750 2034 4750 
z
" transform="scale(0.015625)"/>
        <path id="DejaVuSans-2e" d="M 684 794 
L 1344 794 
L 1344 0 
L 684 0 
L 684 794 
z
" transform="scale(0.015625)"/>
       </defs>
       <use xlink:href="#DejaVuSans-30"/>
       <use xlink:href="#DejaVuSans-2e" transform="translate(63.623047 0)"/>
       <use xlink:href="#DejaVuSans-30" transform="translate(95.410156 0)"/>
      </g>
     </g>
    </g>
    <g id="xtick_2">
     <g id="line2d_2">
      <g>
       <use xlink:href="#mb32097b9be" x="88.489119" y="185.998281" style="stroke: #000000; stroke-width: 0.8"/>
      </g>
     </g>
     <g id="text_2">
      <!-- 2.5 -->
      <g transform="translate(81.332713 199.836875) scale(0.09 -0.09)">
       <defs>
        <path id="DejaVuSans-32" d="M 1228 531 
L 3431 531 
L 3431 0 
L 469 0 
L 469 531 
Q 828 903 1448 1529 
Q 2069 2156 2228 2338 
Q 2531 2678 2651 2914 
Q 2772 3150 2772 3378 
Q 2772 3750 2511 3984 
Q 2250 4219 1831 4219 
Q 1534 4219 1204 4116 
Q 875 4013 500 3803 
L 500 4441 
Q 881 4594 1212 4672 
Q 1544 4750 1819 4750 
Q 2544 4750 2975 4387 
Q 3406 4025 3406 3419 
Q 3406 3131 3298 2873 
Q 3191 2616 2906 2266 
Q 2828 2175 2409 1742 
Q 1991 1309 1228 531 
z
" transform="scale(0.015625)"/>
        <path id="DejaVuSans-35" d="M 691 4666 
L 3169 4666 
L 3169 4134 
L 1269 4134 
L 1269 2991 
Q 1406 3038 1543 3061 
Q 1681 3084 1819 3084 
Q 2600 3084 3056 2656 
Q 3513 2228 3513 1497 
Q 3513 744 3044 326 
Q 2575 -91 1722 -91 
Q 1428 -91 1123 -41 
Q 819 9 494 109 
L 494 744 
Q 775 591 1075 516 
Q 1375 441 1709 441 
Q 2250 441 2565 725 
Q 2881 1009 2881 1497 
Q 2881 1984 2565 2268 
Q 2250 2553 1709 2553 
Q 1456 2553 1204 2497 
Q 953 2441 691 2322 
L 691 4666 
z
" transform="scale(0.015625)"/>
       </defs>
       <use xlink:href="#DejaVuSans-32"/>
       <use xlink:href="#DejaVuSans-2e" transform="translate(63.623047 0)"/>
       <use xlink:href="#DejaVuSans-35" transform="translate(95.410156 0)"/>
      </g>
     </g>
    </g>
    <g id="xtick_3">
     <g id="line2d_3">
      <g>
       <use xlink:href="#mb32097b9be" x="127.070938" y="185.998281" style="stroke: #000000; stroke-width: 0.8"/>
      </g>
     </g>
     <g id="text_3">
      <!-- 5.0 -->
      <g transform="translate(119.914531 199.836875) scale(0.09 -0.09)">
       <use xlink:href="#DejaVuSans-35"/>
       <use xlink:href="#DejaVuSans-2e" transform="translate(63.623047 0)"/>
       <use xlink:href="#DejaVuSans-30" transform="translate(95.410156 0)"/>
      </g>
     </g>
    </g>
    <g id="xtick_4">
     <g id="line2d_4">
      <g>
       <use xlink:href="#mb32097b9be" x="165.652756" y="185.998281" style="stroke: #000000; stroke-width: 0.8"/>
      </g>
     </g>
     <g id="text_4">
      <!-- 7.5 -->
      <g transform="translate(158.496349 199.836875) scale(0.09 -0.09)">
       <defs>
        <path id="DejaVuSans-37" d="M 525 4666 
L 3525 4666 
L 3525 4397 
L 1831 0 
L 1172 0 
L 2766 4134 
L 525 4134 
L 525 4666 
z
" transform="scale(0.015625)"/>
       </defs>
       <use xlink:href="#DejaVuSans-37"/>
       <use xlink:href="#DejaVuSans-2e" transform="translate(63.623047 0)"/>
       <use xlink:href="#DejaVuSans-35" transform="translate(95.410156 0)"/>
      </g>
     </g>
    </g>
    <g id="xtick_5">
     <g id="line2d_5">
      <g>
       <use xlink:href="#mb32097b9be" x="204.234574" y="185.998281" style="stroke: #000000; stroke-width: 0.8"/>
      </g>
     </g>
     <g id="text_5">
      <!-- 10.0 -->
      <g transform="translate(194.215043 199.836875) scale(0.09 -0.09)">
       <defs>
        <path id="DejaVuSans-31" d="M 794 531 
L 1825 531 
L 1825 4091 
L 703 3866 
L 703 4441 
L 1819 4666 
L 2450 4666 
L 2450 531 
L 3481 531 
L 3481 0 
L 794 0 
L 794 531 
z
" transform="scale(0.015625)"/>
       </defs>
       <use xlink:href="#DejaVuSans-31"/>
       <use xlink:href="#DejaVuSans-30" transform="translate(63.623047 0)"/>
       <use xlink:href="#DejaVuSans-2e" transform="translate(127.246094 0)"/>
       <use xlink:href="#DejaVuSans-30" transform="translate(159.033203 0)"/>
      </g>
     </g>
    </g>
    <g id="xtick_6">
     <g id="line2d_6">
      <g>
       <use xlink:href="#mb32097b9be" x="242.816392" y="185.998281" style="stroke: #000000; stroke-width: 0.8"/>
      </g>
     </g>
     <g id="text_6">
      <!-- 12.5 -->
      <g transform="translate(232.796861 199.836875) scale(0.09 -0.09)">
       <use xlink:href="#DejaVuSans-31"/>
       <use xlink:href="#DejaVuSans-32" transform="translate(63.623047 0)"/>
       <use xlink:href="#DejaVuSans-2e" transform="translate(127.246094 0)"/>
       <use xlink:href="#DejaVuSans-35" transform="translate(159.033203 0)"/>
      </g>
     </g>
    </g>
    <g id="xtick_7">
     <g id="line2d_7">
      <g>
       <use xlink:href="#mb32097b9be" x="281.39821" y="185.998281" style="stroke: #000000; stroke-width: 0.8"/>
      </g>
     </g>
     <g id="text_7">
      <!-- 15.0 -->
      <g transform="translate(271.378679 199.836875) scale(0.09 -0.09)">
       <use xlink:href="#DejaVuSans-31"/>
       <use xlink:href="#DejaVuSans-35" transform="translate(63.623047 0)"/>
       <use xlink:href="#DejaVuSans-2e" transform="translate(127.246094 0)"/>
       <use xlink:href="#DejaVuSans-30" transform="translate(159.033203 0)"/>
      </g>
     </g>
    </g>
    <g id="xtick_8">
     <g id="line2d_8">
      <g>
       <use xlink:href="#mb32097b9be" x="319.980028" y="185.998281" style="stroke: #000000; stroke-width: 0.8"/>
      </g>
     </g>
     <g id="text_8">
      <!-- 17.5 -->
      <g transform="translate(309.960497 199.836875) scale(0.09 -0.09)">
       <use xlink:href="#DejaVuSans-31"/>
       <use xlink:href="#DejaVuSans-37" transform="translate(63.623047 0)"/>
       <use xlink:href="#DejaVuSans-2e" transform="translate(127.246094 0)"/>
       <use xlink:href="#DejaVuSans-35" transform="translate(159.033203 0)"/>
      </g>
     </g>
    </g>
    <g id="xtick_9">
     <g id="line2d_9">
      <g>
       <use xlink:href="#mb32097b9be" x="358.561847" y="185.998281" style="stroke: #000000; stroke-width: 0.8"/>
      </g>
     </g>
     <g id="text_9">
      <!-- 20.0 -->
      <g transform="translate(348.542315 199.836875) scale(0.09 -0.09)">
       <use xlink:href="#DejaVuSans-32"/>
       <use xlink:href="#DejaVuSans-30" transform="translate(63.623047 0)"/>
       <use xlink:href="#DejaVuSans-2e" transform="translate(127.246094 0)"/>
       <use xlink:href="#DejaVuSans-30" transform="translate(159.033203 0)"/>
      </g>
     </g>
    </g>
    <g id="text_10">
     <!-- k -->
     <g transform="translate(209.055625 213.307031) scale(0.1 -0.1)">
      <defs>
       <path id="DejaVuSans-6b" d="M 581 4863 
L 1159 4863 
L 1159 1991 
L 2875 3500 
L 3609 3500 
L 1753 1863 
L 3688 0 
L 2938 0 
L 1159 1709 
L 1159 0 
L 581 0 
L 581 4863 
z
" transform="scale(0.015625)"/>
      </defs>
      <use xlink:href="#DejaVuSans-6b"/>
     </g>
    </g>
   </g>
   <g id="matplotlib.axis_2">
    <g id="ytick_1">
     <g id="line2d_10">
      <defs>
       <path id="m0b99bad1c1" d="M 0 0 
L -3.5 0 
" style="stroke: #000000; stroke-width: 0.8"/>
      </defs>
      <g>
       <use xlink:href="#m0b99bad1c1" x="42.190938" y="185.998281" style="stroke: #000000; stroke-width: 0.8"/>
      </g>
     </g>
     <g id="text_11">
      <!-- 0.0 -->
      <g transform="translate(20.878125 189.417578) scale(0.09 -0.09)">
       <use xlink:href="#DejaVuSans-30"/>
       <use xlink:href="#DejaVuSans-2e" transform="translate(63.623047 0)"/>
       <use xlink:href="#DejaVuSans-30" transform="translate(95.410156 0)"/>
      </g>
     </g>
    </g>
    <g id="ytick_2">
     <g id="line2d_11">
      <g>
       <use xlink:href="#m0b99bad1c1" x="42.190938" y="160.177736" style="stroke: #000000; stroke-width: 0.8"/>
      </g>
     </g>
     <g id="text_12">
      <!-- 0.1 -->
      <g transform="translate(20.878125 163.597033) scale(0.09 -0.09)">
       <use xlink:href="#DejaVuSans-30"/>
       <use xlink:href="#DejaVuSans-2e" transform="translate(63.623047 0)"/>
       <use xlink:href="#DejaVuSans-31" transform="translate(95.410156 0)"/>
      </g>
     </g>
    </g>
    <g id="ytick_3">
     <g id="line2d_12">
      <g>
       <use xlink:href="#m0b99bad1c1" x="42.190938" y="134.357191" style="stroke: #000000; stroke-width: 0.8"/>
      </g>
     </g>
     <g id="text_13">
      <!-- 0.2 -->
      <g transform="translate(20.878125 137.776488) scale(0.09 -0.09)">
       <use xlink:href="#DejaVuSans-30"/>
       <use xlink:href="#DejaVuSans-2e" transform="translate(63.623047 0)"/>
       <use xlink:href="#DejaVuSans-32" transform="translate(95.410156 0)"/>
      </g>
     </g>
    </g>
    <g id="ytick_4">
     <g id="line2d_13">
      <g>
       <use xlink:href="#m0b99bad1c1" x="42.190938" y="108.536645" style="stroke: #000000; stroke-width: 0.8"/>
      </g>
     </g>
     <g id="text_14">
      <!-- 0.3 -->
      <g transform="translate(20.878125 111.955942) scale(0.09 -0.09)">
       <defs>
        <path id="DejaVuSans-33" d="M 2597 2516 
Q 3050 2419 3304 2112 
Q 3559 1806 3559 1356 
Q 3559 666 3084 287 
Q 2609 -91 1734 -91 
Q 1441 -91 1130 -33 
Q 819 25 488 141 
L 488 750 
Q 750 597 1062 519 
Q 1375 441 1716 441 
Q 2309 441 2620 675 
Q 2931 909 2931 1356 
Q 2931 1769 2642 2001 
Q 2353 2234 1838 2234 
L 1294 2234 
L 1294 2753 
L 1863 2753 
Q 2328 2753 2575 2939 
Q 2822 3125 2822 3475 
Q 2822 3834 2567 4026 
Q 2313 4219 1838 4219 
Q 1578 4219 1281 4162 
Q 984 4106 628 3988 
L 628 4550 
Q 988 4650 1302 4700 
Q 1616 4750 1894 4750 
Q 2613 4750 3031 4423 
Q 3450 4097 3450 3541 
Q 3450 3153 3228 2886 
Q 3006 2619 2597 2516 
z
" transform="scale(0.015625)"/>
       </defs>
       <use xlink:href="#DejaVuSans-30"/>
       <use xlink:href="#DejaVuSans-2e" transform="translate(63.623047 0)"/>
       <use xlink:href="#DejaVuSans-33" transform="translate(95.410156 0)"/>
      </g>
     </g>
    </g>
    <g id="ytick_5">
     <g id="line2d_14">
      <g>
       <use xlink:href="#m0b99bad1c1" x="42.190938" y="82.7161" style="stroke: #000000; stroke-width: 0.8"/>
      </g>
     </g>
     <g id="text_15">
      <!-- 0.4 -->
      <g transform="translate(20.878125 86.135397) scale(0.09 -0.09)">
       <defs>
        <path id="DejaVuSans-34" d="M 2419 4116 
L 825 1625 
L 2419 1625 
L 2419 4116 
z
M 2253 4666 
L 3047 4666 
L 3047 1625 
L 3713 1625 
L 3713 1100 
L 3047 1100 
L 3047 0 
L 2419 0 
L 2419 1100 
L 313 1100 
L 313 1709 
L 2253 4666 
z
" transform="scale(0.015625)"/>
       </defs>
       <use xlink:href="#DejaVuSans-30"/>
       <use xlink:href="#DejaVuSans-2e" transform="translate(63.623047 0)"/>
       <use xlink:href="#DejaVuSans-34" transform="translate(95.410156 0)"/>
      </g>
     </g>
    </g>
    <g id="ytick_6">
     <g id="line2d_15">
      <g>
       <use xlink:href="#m0b99bad1c1" x="42.190938" y="56.895555" style="stroke: #000000; stroke-width: 0.8"/>
      </g>
     </g>
     <g id="text_16">
      <!-- 0.5 -->
      <g transform="translate(20.878125 60.314852) scale(0.09 -0.09)">
       <use xlink:href="#DejaVuSans-30"/>
       <use xlink:href="#DejaVuSans-2e" transform="translate(63.623047 0)"/>
       <use xlink:href="#DejaVuSans-35" transform="translate(95.410156 0)"/>
      </g>
     </g>
    </g>
    <g id="ytick_7">
     <g id="line2d_16">
      <g>
       <use xlink:href="#m0b99bad1c1" x="42.190938" y="31.075009" style="stroke: #000000; stroke-width: 0.8"/>
      </g>
     </g>
     <g id="text_17">
      <!-- 0.6 -->
      <g transform="translate(20.878125 34.494306) scale(0.09 -0.09)">
       <defs>
        <path id="DejaVuSans-36" d="M 2113 2584 
Q 1688 2584 1439 2293 
Q 1191 2003 1191 1497 
Q 1191 994 1439 701 
Q 1688 409 2113 409 
Q 2538 409 2786 701 
Q 3034 994 3034 1497 
Q 3034 2003 2786 2293 
Q 2538 2584 2113 2584 
z
M 3366 4563 
L 3366 3988 
Q 3128 4100 2886 4159 
Q 2644 4219 2406 4219 
Q 1781 4219 1451 3797 
Q 1122 3375 1075 2522 
Q 1259 2794 1537 2939 
Q 1816 3084 2150 3084 
Q 2853 3084 3261 2657 
Q 3669 2231 3669 1497 
Q 3669 778 3244 343 
Q 2819 -91 2113 -91 
Q 1303 -91 875 529 
Q 447 1150 447 2328 
Q 447 3434 972 4092 
Q 1497 4750 2381 4750 
Q 2619 4750 2861 4703 
Q 3103 4656 3366 4563 
z
" transform="scale(0.015625)"/>
       </defs>
       <use xlink:href="#DejaVuSans-30"/>
       <use xlink:href="#DejaVuSans-2e" transform="translate(63.623047 0)"/>
       <use xlink:href="#DejaVuSans-36" transform="translate(95.410156 0)"/>
      </g>
     </g>
    </g>
    <g id="text_18">
     <!-- P(X = k) -->
     <g transform="translate(14.798438 124.382969) rotate(-90) scale(0.1 -0.1)">
      <defs>
       <path id="DejaVuSans-50" d="M 1259 4147 
L 1259 2394 
L 2053 2394 
Q 2494 2394 2734 2622 
Q 2975 2850 2975 3272 
Q 2975 3691 2734 3919 
Q 2494 4147 2053 4147 
L 1259 4147 
z
M 628 4666 
L 2053 4666 
Q 2838 4666 3239 4311 
Q 3641 3956 3641 3272 
Q 3641 2581 3239 2228 
Q 2838 1875 2053 1875 
L 1259 1875 
L 1259 0 
L 628 0 
L 628 4666 
z
" transform="scale(0.015625)"/>
       <path id="DejaVuSans-28" d="M 1984 4856 
Q 1566 4138 1362 3434 
Q 1159 2731 1159 2009 
Q 1159 1288 1364 580 
Q 1569 -128 1984 -844 
L 1484 -844 
Q 1016 -109 783 600 
Q 550 1309 550 2009 
Q 550 2706 781 3412 
Q 1013 4119 1484 4856 
L 1984 4856 
z
" transform="scale(0.015625)"/>
       <path id="DejaVuSans-58" d="M 403 4666 
L 1081 4666 
L 2241 2931 
L 3406 4666 
L 4084 4666 
L 2584 2425 
L 4184 0 
L 3506 0 
L 2194 1984 
L 872 0 
L 191 0 
L 1856 2491 
L 403 4666 
z
" transform="scale(0.015625)"/>
       <path id="DejaVuSans-20" transform="scale(0.015625)"/>
       <path id="DejaVuSans-3d" d="M 678 2906 
L 4684 2906 
L 4684 2381 
L 678 2381 
L 678 2906 
z
M 678 1631 
L 4684 1631 
L 4684 1100 
L 678 1100 
L 678 1631 
z
" transform="scale(0.015625)"/>
       <path id="DejaVuSans-29" d="M 513 4856 
L 1013 4856 
Q 1481 4119 1714 3412 
Q 1947 2706 1947 2009 
Q 1947 1309 1714 600 
Q 1481 -109 1013 -844 
L 513 -844 
Q 928 -128 1133 580 
Q 1338 1288 1338 2009 
Q 1338 2731 1133 3434 
Q 928 4138 513 4856 
z
" transform="scale(0.015625)"/>
      </defs>
      <use xlink:href="#DejaVuSans-50"/>
      <use xlink:href="#DejaVuSans-28" transform="translate(60.302734 0)"/>
      <use xlink:href="#DejaVuSans-58" transform="translate(99.316406 0)"/>
      <use xlink:href="#DejaVuSans-20" transform="translate(167.822266 0)"/>
      <use xlink:href="#DejaVuSans-3d" transform="translate(199.609375 0)"/>
      <use xlink:href="#DejaVuSans-20" transform="translate(283.398438 0)"/>
      <use xlink:href="#DejaVuSans-6b" transform="translate(315.185547 0)"/>
      <use xlink:href="#DejaVuSans-29" transform="translate(373.095703 0)"/>
     </g>
    </g>
   </g>
   <g id="line2d_17">
    <path d="M 49.907301 91.009803 
L 65.340028 91.009803 
L 80.772756 138.504042 
L 96.205483 170.166868 
L 111.63821 182.040428 
L 127.070938 185.206711 
L 142.503665 185.866353 
L 157.936392 185.979434 
L 173.369119 185.995925 
L 188.801847 185.998019 
L 204.234574 185.998255 
L 219.667301 185.998279 
L 235.100028 185.998281 
L 250.532756 185.998281 
L 265.965483 185.998281 
L 281.39821 185.998281 
L 296.830938 185.998281 
L 312.263665 185.998281 
L 327.696392 185.998281 
L 343.129119 185.998281 
L 358.561847 185.998281 
L 373.994574 185.998281 
" clip-path="url(#p20c0854256)" style="fill: none; stroke: #2563eb; stroke-width: 1.5; stroke-linecap: square"/>
    <defs>
     <path id="me0abe11b3f" d="M 0 2 
C 0.530406 2 1.03916 1.789267 1.414214 1.414214 
C 1.789267 1.03916 2 0.530406 2 0 
C 2 -0.530406 1.789267 -1.03916 1.414214 -1.414214 
C 1.03916 -1.789267 0.530406 -2 0 -2 
C -0.530406 -2 -1.03916 -1.789267 -1.414214 -1.414214 
C -1.789267 -1.03916 -2 -0.530406 -2 0 
C -2 0.530406 -1.789267 1.03916 -1.414214 1.414214 
C -1.03916 1.789267 -0.530406 2 0 2 
z
" style="stroke: #2563eb"/>
    </defs>
    <g clip-path="url(#p20c0854256)">
     <use xlink:href="#me0abe11b3f" x="49.907301" y="91.009803" style="fill: #2563eb; stroke: #2563eb"/>
     <use xlink:href="#me0abe11b3f" x="65.340028" y="91.009803" style="fill: #2563eb; stroke: #2563eb"/>
     <use xlink:href="#me0abe11b3f" x="80.772756" y="138.504042" style="fill: #2563eb; stroke: #2563eb"/>
     <use xlink:href="#me0abe11b3f" x="96.205483" y="170.166868" style="fill: #2563eb; stroke: #2563eb"/>
     <use xlink:href="#me0abe11b3f" x="111.63821" y="182.040428" style="fill: #2563eb; stroke: #2563eb"/>
     <use xlink:href="#me0abe11b3f" x="127.070938" y="185.206711" style="fill: #2563eb; stroke: #2563eb"/>
     <use xlink:href="#me0abe11b3f" x="142.503665" y="185.866353" style="fill: #2563eb; stroke: #2563eb"/>
     <use xlink:href="#me0abe11b3f" x="157.936392" y="185.979434" style="fill: #2563eb; stroke: #2563eb"/>
     <use xlink:href="#me0abe11b3f" x="173.369119" y="185.995925" style="fill: #2563eb; stroke: #2563eb"/>
     <use xlink:href="#me0abe11b3f" x="188.801847" y="185.998019" style="fill: #2563eb; stroke: #2563eb"/>
     <use xlink:href="#me0abe11b3f" x="204.234574" y="185.998255" style="fill: #2563eb; stroke: #2563eb"/>
     <use xlink:href="#me0abe11b3f" x="219.667301" y="185.998279" style="fill: #2563eb; stroke: #2563eb"/>
     <use xlink:href="#me0abe11b3f" x="235.100028" y="185.998281" style="fill: #2563eb; stroke: #2563eb"/>
     <use xlink:href="#me0abe11b3f" x="250.532756" y="185.998281" style="fill: #2563eb; stroke: #2563eb"/>
     <use xlink:href="#me0abe11b3f" x="265.965483" y="185.998281" style="fill: #2563eb; stroke: #2563eb"/>
     <use xlink:href="#me0abe11b3f" x="281.39821" y="185.998281" style="fill: #2563eb; stroke: #2563eb"/>
     <use xlink:href="#me0abe11b3f" x="296.830938" y="185.998281" style="fill: #2563eb; stroke: #2563eb"/>
     <use xlink:href="#me0abe11b3f" x="312.263665" y="185.998281" style="fill: #2563eb; stroke: #2563eb"/>
     <use xlink:href="#me0abe11b3f" x="327.696392" y="185.998281" style="fill: #2563eb; stroke: #2563eb"/>
     <use xlink:href="#me0abe11b3f" x="343.129119" y="185.998281" style="fill: #2563eb; stroke: #2563eb"/>
     <use xlink:href="#me0abe11b3f" x="358.561847" y="185.998281" style="fill: #2563eb; stroke: #2563eb"/>
     <use xlink:href="#me0abe11b3f" x="373.994574" y="185.998281" style="fill: #2563eb; stroke: #2563eb"/>
    </g>
   </g>
   <g id="line2d_18">
    <path d="M 49.907301 181.269083 
L 65.340028 167.08149 
L 80.772756 148.164699 
L 96.205483 135.553504 
L 111.63821 135.553504 
L 127.070938 145.64246 
L 142.503665 159.0944 
L 157.936392 170.624635 
L 173.369119 178.311458 
L 188.801847 182.581915 
L 204.234574 184.631735 
L 219.667301 185.501355 
L 235.100028 185.832639 
L 250.532756 185.947314 
L 265.965483 185.983719 
L 281.39821 185.994398 
L 296.830938 185.99731 
L 312.263665 185.998053 
L 327.696392 185.99823 
L 343.129119 185.998271 
L 358.561847 185.998279 
L 373.994574 185.998281 
" clip-path="url(#p20c0854256)" style="fill: none; stroke: #dc2626; stroke-width: 1.5; stroke-linecap: square"/>
    <defs>
     <path id="m8c4ed89f44" d="M 0 2 
C 0.530406 2 1.03916 1.789267 1.414214 1.414214 
C 1.789267 1.03916 2 0.530406 2 0 
C 2 -0.530406 1.789267 -1.03916 1.414214 -1.414214 
C 1.03916 -1.789267 0.530406 -2 0 -2 
C -0.530406 -2 -1.03916 -1.789267 -1.414214 -1.414214 
C -1.789267 -1.03916 -2 -0.530406 -2 0 
C -2 0.530406 -1.789267 1.03916 -1.414214 1.414214 
C -1.03916 1.789267 -0.530406 2 0 2 
z
" style="stroke: #dc2626"/>
    </defs>
    <g clip-path="url(#p20c0854256)">
     <use xlink:href="#m8c4ed89f44" x="49.907301" y="181.269083" style="fill: #dc2626; stroke: #dc2626"/>
     <use xlink:href="#m8c4ed89f44" x="65.340028" y="167.08149" style="fill: #dc2626; stroke: #dc2626"/>
     <use xlink:href="#m8c4ed89f44" x="80.772756" y="148.164699" style="fill: #dc2626; stroke: #dc2626"/>
     <use xlink:href="#m8c4ed89f44" x="96.205483" y="135.553504" style="fill: #dc2626; stroke: #dc2626"/>
     <use xlink:href="#m8c4ed89f44" x="111.63821" y="135.553504" style="fill: #dc2626; stroke: #dc2626"/>
     <use xlink:href="#m8c4ed89f44" x="127.070938" y="145.64246" style="fill: #dc2626; stroke: #dc2626"/>
     <use xlink:href="#m8c4ed89f44" x="142.503665" y="159.0944" style="fill: #dc2626; stroke: #dc2626"/>
     <use xlink:href="#m8c4ed89f44" x="157.936392" y="170.624635" style="fill: #dc2626; stroke: #dc2626"/>
     <use xlink:href="#m8c4ed89f44" x="173.369119" y="178.311458" style="fill: #dc2626; stroke: #dc2626"/>
     <use xlink:href="#m8c4ed89f44" x="188.801847" y="182.581915" style="fill: #dc2626; stroke: #dc2626"/>
     <use xlink:href="#m8c4ed89f44" x="204.234574" y="184.631735" style="fill: #dc2626; stroke: #dc2626"/>
     <use xlink:href="#m8c4ed89f44" x="219.667301" y="185.501355" style="fill: #dc2626; stroke: #dc2626"/>
     <use xlink:href="#m8c4ed89f44" x="235.100028" y="185.832639" style="fill: #dc2626; stroke: #dc2626"/>
     <use xlink:href="#m8c4ed89f44" x="250.532756" y="185.947314" style="fill: #dc2626; stroke: #dc2626"/>
     <use xlink:href="#m8c4ed89f44" x="265.965483" y="185.983719" style="fill: #dc2626; stroke: #dc2626"/>
     <use xlink:href="#m8c4ed89f44" x="281.39821" y="185.994398" style="fill: #dc2626; stroke: #dc2626"/>
     <use xlink:href="#m8c4ed89f44" x="296.830938" y="185.99731" style="fill: #dc2626; stroke: #dc2626"/>
     <use xlink:href="#m8c4ed89f44" x="312.263665" y="185.998053" style="fill: #dc2626; stroke: #dc2626"/>
     <use xlink:href="#m8c4ed89f44" x="327.696392" y="185.99823" style="fill: #dc2626; stroke: #dc2626"/>
     <use xlink:href="#m8c4ed89f44" x="343.129119" y="185.998271" style="fill: #dc2626; stroke: #dc2626"/>
     <use xlink:href="#m8c4ed89f44" x="358.561847" y="185.998279" style="fill: #dc2626; stroke: #dc2626"/>
     <use xlink:href="#m8c4ed89f44" x="373.994574" y="185.998281" style="fill: #dc2626; stroke: #dc2626"/>
    </g>
   </g>
   <g id="line2d_19">
    <path d="M 49.907301 185.986559 
L 65.340028 185.881056 
L 80.772756 185.412156 
L 96.205483 184.04453 
L 111.63821 181.113902 
L 127.070938 176.229523 
L 142.503665 169.717018 
L 157.936392 162.739334 
L 173.369119 156.924597 
L 188.801847 153.694188 
L 204.234574 153.694188 
L 219.667301 156.630924 
L 235.100028 161.525483 
L 250.532756 167.173052 
L 265.965483 172.551689 
L 281.39821 177.033886 
L 296.830938 180.395534 
L 312.263665 182.702548 
L 327.696392 184.167318 
L 343.129119 185.034617 
L 358.561847 185.516449 
L 373.994574 185.768837 
" clip-path="url(#p20c0854256)" style="fill: none; stroke: #16a34a; stroke-width: 1.5; stroke-linecap: square"/>
    <defs>
     <path id="m646b7064d3" d="M 0 2 
C 0.530406 2 1.03916 1.789267 1.414214 1.414214 
C 1.789267 1.03916 2 0.530406 2 0 
C 2 -0.530406 1.789267 -1.03916 1.414214 -1.414214 
C 1.03916 -1.789267 0.530406 -2 0 -2 
C -0.530406 -2 -1.03916 -1.789267 -1.414214 -1.414214 
C -1.789267 -1.03916 -2 -0.530406 -2 0 
C -2 0.530406 -1.789267 1.03916 -1.414214 1.414214 
C -1.03916 1.789267 -0.530406 2 0 2 
z
" style="stroke: #16a34a"/>
    </defs>
    <g clip-path="url(#p20c0854256)">
     <use xlink:href="#m646b7064d3" x="49.907301" y="185.986559" style="fill: #16a34a; stroke: #16a34a"/>
     <use xlink:href="#m646b7064d3" x="65.340028" y="185.881056" style="fill: #16a34a; stroke: #16a34a"/>
     <use xlink:href="#m646b7064d3" x="80.772756" y="185.412156" style="fill: #16a34a; stroke: #16a34a"/>
     <use xlink:href="#m646b7064d3" x="96.205483" y="184.04453" style="fill: #16a34a; stroke: #16a34a"/>
     <use xlink:href="#m646b7064d3" x="111.63821" y="181.113902" style="fill: #16a34a; stroke: #16a34a"/>
     <use xlink:href="#m646b7064d3" x="127.070938" y="176.229523" style="fill: #16a34a; stroke: #16a34a"/>
     <use xlink:href="#m646b7064d3" x="142.503665" y="169.717018" style="fill: #16a34a; stroke: #16a34a"/>
     <use xlink:href="#m646b7064d3" x="157.936392" y="162.739334" style="fill: #16a34a; stroke: #16a34a"/>
     <use xlink:href="#m646b7064d3" x="173.369119" y="156.924597" style="fill: #16a34a; stroke: #16a34a"/>
     <use xlink:href="#m646b7064d3" x="188.801847" y="153.694188" style="fill: #16a34a; stroke: #16a34a"/>
     <use xlink:href="#m646b7064d3" x="204.234574" y="153.694188" style="fill: #16a34a; stroke: #16a34a"/>
     <use xlink:href="#m646b7064d3" x="219.667301" y="156.630924" style="fill: #16a34a; stroke: #16a34a"/>
     <use xlink:href="#m646b7064d3" x="235.100028" y="161.525483" style="fill: #16a34a; stroke: #16a34a"/>
     <use xlink:href="#m646b7064d3" x="250.532756" y="167.173052" style="fill: #16a34a; stroke: #16a34a"/>
     <use xlink:href="#m646b7064d3" x="265.965483" y="172.551689" style="fill: #16a34a; stroke: #16a34a"/>
     <use xlink:href="#m646b7064d3" x="281.39821" y="177.033886" style="fill: #16a34a; stroke: #16a34a"/>
     <use xlink:href="#m646b7064d3" x="296.830938" y="180.395534" style="fill: #16a34a; stroke: #16a34a"/>
     <use xlink:href="#m646b7064d3" x="312.263665" y="182.702548" style="fill: #16a34a; stroke: #16a34a"/>
     <use xlink:href="#m646b7064d3" x="327.696392" y="184.167318" style="fill: #16a34a; stroke: #16a34a"/>
     <use xlink:href="#m646b7064d3" x="343.129119" y="185.034617" style="fill: #16a34a; stroke: #16a34a"/>
     <use xlink:href="#m646b7064d3" x="358.561847" y="185.516449" style="fill: #16a34a; stroke: #16a34a"/>
     <use xlink:href="#m646b7064d3" x="373.994574" y="185.768837" style="fill: #16a34a; stroke: #16a34a"/>
    </g>
   </g>
   <g id="line2d_20">
    <path d="M 49.907301 29.388757 
L 65.340028 107.693519 
L 80.772756 166.422091 
L 96.205483 182.735583 
L 111.63821 185.590444 
L 127.070938 185.957498 
L 142.503665 185.994883 
L 157.936392 185.998038 
L 173.369119 185.998266 
L 188.801847 185.99828 
L 204.234574 185.998281 
L 219.667301 185.998281 
L 235.100028 185.998281 
L 250.532756 185.998281 
L 265.965483 185.998281 
L 281.39821 185.998281 
L 296.830938 185.998281 
L 312.263665 185.998281 
L 327.696392 185.998281 
L 343.129119 185.998281 
L 358.561847 185.998281 
L 373.994574 185.998281 
" clip-path="url(#p20c0854256)" style="fill: none; stroke: #9333ea; stroke-width: 1.5; stroke-linecap: square"/>
    <defs>
     <path id="m2c6d0ae98a" d="M 0 2 
C 0.530406 2 1.03916 1.789267 1.414214 1.414214 
C 1.789267 1.03916 2 0.530406 2 0 
C 2 -0.530406 1.789267 -1.03916 1.414214 -1.414214 
C 1.03916 -1.789267 0.530406 -2 0 -2 
C -0.530406 -2 -1.03916 -1.789267 -1.414214 -1.414214 
C -1.789267 -1.03916 -2 -0.530406 -2 0 
C -2 0.530406 -1.789267 1.03916 -1.414214 1.414214 
C -1.03916 1.789267 -0.530406 2 0 2 
z
" style="stroke: #9333ea"/>
    </defs>
    <g clip-path="url(#p20c0854256)">
     <use xlink:href="#m2c6d0ae98a" x="49.907301" y="29.388757" style="fill: #9333ea; stroke: #9333ea"/>
     <use xlink:href="#m2c6d0ae98a" x="65.340028" y="107.693519" style="fill: #9333ea; stroke: #9333ea"/>
     <use xlink:href="#m2c6d0ae98a" x="80.772756" y="166.422091" style="fill: #9333ea; stroke: #9333ea"/>
     <use xlink:href="#m2c6d0ae98a" x="96.205483" y="182.735583" style="fill: #9333ea; stroke: #9333ea"/>
     <use xlink:href="#m2c6d0ae98a" x="111.63821" y="185.590444" style="fill: #9333ea; stroke: #9333ea"/>
     <use xlink:href="#m2c6d0ae98a" x="127.070938" y="185.957498" style="fill: #9333ea; stroke: #9333ea"/>
     <use xlink:href="#m2c6d0ae98a" x="142.503665" y="185.994883" style="fill: #9333ea; stroke: #9333ea"/>
     <use xlink:href="#m2c6d0ae98a" x="157.936392" y="185.998038" style="fill: #9333ea; stroke: #9333ea"/>
     <use xlink:href="#m2c6d0ae98a" x="173.369119" y="185.998266" style="fill: #9333ea; stroke: #9333ea"/>
     <use xlink:href="#m2c6d0ae98a" x="188.801847" y="185.99828" style="fill: #9333ea; stroke: #9333ea"/>
     <use xlink:href="#m2c6d0ae98a" x="204.234574" y="185.998281" style="fill: #9333ea; stroke: #9333ea"/>
     <use xlink:href="#m2c6d0ae98a" x="219.667301" y="185.998281" style="fill: #9333ea; stroke: #9333ea"/>
     <use xlink:href="#m2c6d0ae98a" x="235.100028" y="185.998281" style="fill: #9333ea; stroke: #9333ea"/>
     <use xlink:href="#m2c6d0ae98a" x="250.532756" y="185.998281" style="fill: #9333ea; stroke: #9333ea"/>
     <use xlink:href="#m2c6d0ae98a" x="265.965483" y="185.998281" style="fill: #9333ea; stroke: #9333ea"/>
     <use xlink:href="#m2c6d0ae98a" x="281.39821" y="185.998281" style="fill: #9333ea; stroke: #9333ea"/>
     <use xlink:href="#m2c6d0ae98a" x="296.830938" y="185.998281" style="fill: #9333ea; stroke: #9333ea"/>
     <use xlink:href="#m2c6d0ae98a" x="312.263665" y="185.998281" style="fill: #9333ea; stroke: #9333ea"/>
     <use xlink:href="#m2c6d0ae98a" x="327.696392" y="185.998281" style="fill: #9333ea; stroke: #9333ea"/>
     <use xlink:href="#m2c6d0ae98a" x="343.129119" y="185.998281" style="fill: #9333ea; stroke: #9333ea"/>
     <use xlink:href="#m2c6d0ae98a" x="358.561847" y="185.998281" style="fill: #9333ea; stroke: #9333ea"/>
     <use xlink:href="#m2c6d0ae98a" x="373.994574" y="185.998281" style="fill: #9333ea; stroke: #9333ea"/>
    </g>
   </g>
   <g id="patch_3">
    <path d="M 42.190938 185.998281 
L 42.190938 21.558281 
" style="fill: none; stroke: #000000; stroke-width: 0.8; stroke-linejoin: miter; stroke-linecap: square"/>
   </g>
   <g id="patch_4">
    <path d="M 42.190938 185.998281 
L 381.710938 185.998281 
" style="fill: none; stroke: #000000; stroke-width: 0.8; stroke-linejoin: miter; stroke-linecap: square"/>
   </g>
   <g id="text_19">
    <!-- Poisson Distribution PMF -->
    <g transform="translate(133.911953 15.558281) scale(0.11 -0.11)">
     <defs>
      <path id="DejaVuSans-Bold-50" d="M 588 4666 
L 2584 4666 
Q 3475 4666 3951 4270 
Q 4428 3875 4428 3144 
Q 4428 2409 3951 2014 
Q 3475 1619 2584 1619 
L 1791 1619 
L 1791 0 
L 588 0 
L 588 4666 
z
M 1791 3794 
L 1791 2491 
L 2456 2491 
Q 2806 2491 2997 2661 
Q 3188 2831 3188 3144 
Q 3188 3456 2997 3625 
Q 2806 3794 2456 3794 
L 1791 3794 
z
" transform="scale(0.015625)"/>
      <path id="DejaVuSans-Bold-6f" d="M 2203 2784 
Q 1831 2784 1636 2517 
Q 1441 2250 1441 1747 
Q 1441 1244 1636 976 
Q 1831 709 2203 709 
Q 2569 709 2762 976 
Q 2956 1244 2956 1747 
Q 2956 2250 2762 2517 
Q 2569 2784 2203 2784 
z
M 2203 3584 
Q 3106 3584 3614 3096 
Q 4122 2609 4122 1747 
Q 4122 884 3614 396 
Q 3106 -91 2203 -91 
Q 1297 -91 786 396 
Q 275 884 275 1747 
Q 275 2609 786 3096 
Q 1297 3584 2203 3584 
z
" transform="scale(0.015625)"/>
      <path id="DejaVuSans-Bold-69" d="M 538 3500 
L 1656 3500 
L 1656 0 
L 538 0 
L 538 3500 
z
M 538 4863 
L 1656 4863 
L 1656 3950 
L 538 3950 
L 538 4863 
z
" transform="scale(0.015625)"/>
      <path id="DejaVuSans-Bold-73" d="M 3272 3391 
L 3272 2541 
Q 2913 2691 2578 2766 
Q 2244 2841 1947 2841 
Q 1628 2841 1473 2761 
Q 1319 2681 1319 2516 
Q 1319 2381 1436 2309 
Q 1553 2238 1856 2203 
L 2053 2175 
Q 2913 2066 3209 1816 
Q 3506 1566 3506 1031 
Q 3506 472 3093 190 
Q 2681 -91 1863 -91 
Q 1516 -91 1145 -36 
Q 775 19 384 128 
L 384 978 
Q 719 816 1070 734 
Q 1422 653 1784 653 
Q 2113 653 2278 743 
Q 2444 834 2444 1013 
Q 2444 1163 2330 1236 
Q 2216 1309 1875 1350 
L 1678 1375 
Q 931 1469 631 1722 
Q 331 1975 331 2491 
Q 331 3047 712 3315 
Q 1094 3584 1881 3584 
Q 2191 3584 2531 3537 
Q 2872 3491 3272 3391 
z
" transform="scale(0.015625)"/>
      <path id="DejaVuSans-Bold-6e" d="M 4056 2131 
L 4056 0 
L 2931 0 
L 2931 347 
L 2931 1631 
Q 2931 2084 2911 2256 
Q 2891 2428 2841 2509 
Q 2775 2619 2662 2680 
Q 2550 2741 2406 2741 
Q 2056 2741 1856 2470 
Q 1656 2200 1656 1722 
L 1656 0 
L 538 0 
L 538 3500 
L 1656 3500 
L 1656 2988 
Q 1909 3294 2193 3439 
Q 2478 3584 2822 3584 
Q 3428 3584 3742 3212 
Q 4056 2841 4056 2131 
z
" transform="scale(0.015625)"/>
      <path id="DejaVuSans-Bold-20" transform="scale(0.015625)"/>
      <path id="DejaVuSans-Bold-44" d="M 1791 3756 
L 1791 909 
L 2222 909 
Q 2959 909 3348 1275 
Q 3738 1641 3738 2338 
Q 3738 3031 3350 3393 
Q 2963 3756 2222 3756 
L 1791 3756 
z
M 588 4666 
L 1856 4666 
Q 2919 4666 3439 4514 
Q 3959 4363 4331 4000 
Q 4659 3684 4818 3271 
Q 4978 2859 4978 2338 
Q 4978 1809 4818 1395 
Q 4659 981 4331 666 
Q 3956 303 3431 151 
Q 2906 0 1856 0 
L 588 0 
L 588 4666 
z
" transform="scale(0.015625)"/>
      <path id="DejaVuSans-Bold-74" d="M 1759 4494 
L 1759 3500 
L 2913 3500 
L 2913 2700 
L 1759 2700 
L 1759 1216 
Q 1759 972 1856 886 
Q 1953 800 2241 800 
L 2816 800 
L 2816 0 
L 1856 0 
Q 1194 0 917 276 
Q 641 553 641 1216 
L 641 2700 
L 84 2700 
L 84 3500 
L 641 3500 
L 641 4494 
L 1759 4494 
z
" transform="scale(0.015625)"/>
      <path id="DejaVuSans-Bold-72" d="M 3138 2547 
Q 2991 2616 2845 2648 
Q 2700 2681 2553 2681 
Q 2122 2681 1889 2404 
Q 1656 2128 1656 1613 
L 1656 0 
L 538 0 
L 538 3500 
L 1656 3500 
L 1656 2925 
Q 1872 3269 2151 3426 
Q 2431 3584 2822 3584 
Q 2878 3584 2943 3579 
Q 3009 3575 3134 3559 
L 3138 2547 
z
" transform="scale(0.015625)"/>
      <path id="DejaVuSans-Bold-62" d="M 2400 722 
Q 2759 722 2948 984 
Q 3138 1247 3138 1747 
Q 3138 2247 2948 2509 
Q 2759 2772 2400 2772 
Q 2041 2772 1848 2508 
Q 1656 2244 1656 1747 
Q 1656 1250 1848 986 
Q 2041 722 2400 722 
z
M 1656 2988 
Q 1888 3294 2169 3439 
Q 2450 3584 2816 3584 
Q 3463 3584 3878 3070 
Q 4294 2556 4294 1747 
Q 4294 938 3878 423 
Q 3463 -91 2816 -91 
Q 2450 -91 2169 54 
Q 1888 200 1656 506 
L 1656 0 
L 538 0 
L 538 4863 
L 1656 4863 
L 1656 2988 
z
" transform="scale(0.015625)"/>
      <path id="DejaVuSans-Bold-75" d="M 500 1363 
L 500 3500 
L 1625 3500 
L 1625 3150 
Q 1625 2866 1622 2436 
Q 1619 2006 1619 1863 
Q 1619 1441 1641 1255 
Q 1663 1069 1716 984 
Q 1784 875 1895 815 
Q 2006 756 2150 756 
Q 2500 756 2700 1025 
Q 2900 1294 2900 1772 
L 2900 3500 
L 4019 3500 
L 4019 0 
L 2900 0 
L 2900 506 
Q 2647 200 2364 54 
Q 2081 -91 1741 -91 
Q 1134 -91 817 281 
Q 500 653 500 1363 
z
" transform="scale(0.015625)"/>
      <path id="DejaVuSans-Bold-4d" d="M 588 4666 
L 2119 4666 
L 3181 2169 
L 4250 4666 
L 5778 4666 
L 5778 0 
L 4641 0 
L 4641 3413 
L 3566 897 
L 2803 897 
L 1728 3413 
L 1728 0 
L 588 0 
L 588 4666 
z
" transform="scale(0.015625)"/>
      <path id="DejaVuSans-Bold-46" d="M 588 4666 
L 3834 4666 
L 3834 3756 
L 1791 3756 
L 1791 2888 
L 3713 2888 
L 3713 1978 
L 1791 1978 
L 1791 0 
L 588 0 
L 588 4666 
z
" transform="scale(0.015625)"/>
     </defs>
     <use xlink:href="#DejaVuSans-Bold-50"/>
     <use xlink:href="#DejaVuSans-Bold-6f" transform="translate(73.291016 0)"/>
     <use xlink:href="#DejaVuSans-Bold-69" transform="translate(141.992188 0)"/>
     <use xlink:href="#DejaVuSans-Bold-73" transform="translate(176.269531 0)"/>
     <use xlink:href="#DejaVuSans-Bold-73" transform="translate(235.791016 0)"/>
     <use xlink:href="#DejaVuSans-Bold-6f" transform="translate(295.3125 0)"/>
     <use xlink:href="#DejaVuSans-Bold-6e" transform="translate(364.013672 0)"/>
     <use xlink:href="#DejaVuSans-Bold-20" transform="translate(435.205078 0)"/>
     <use xlink:href="#DejaVuSans-Bold-44" transform="translate(470.019531 0)"/>
     <use xlink:href="#DejaVuSans-Bold-69" transform="translate(553.027344 0)"/>
     <use xlink:href="#DejaVuSans-Bold-73" transform="translate(587.304688 0)"/>
     <use xlink:href="#DejaVuSans-Bold-74" transform="translate(646.826172 0)"/>
     <use xlink:href="#DejaVuSans-Bold-72" transform="translate(694.628906 0)"/>
     <use xlink:href="#DejaVuSans-Bold-69" transform="translate(743.945312 0)"/>
     <use xlink:href="#DejaVuSans-Bold-62" transform="translate(778.222656 0)"/>
     <use xlink:href="#DejaVuSans-Bold-75" transform="translate(849.804688 0)"/>
     <use xlink:href="#DejaVuSans-Bold-74" transform="translate(920.996094 0)"/>
     <use xlink:href="#DejaVuSans-Bold-69" transform="translate(968.798828 0)"/>
     <use xlink:href="#DejaVuSans-Bold-6f" transform="translate(1003.076172 0)"/>
     <use xlink:href="#DejaVuSans-Bold-6e" transform="translate(1071.777344 0)"/>
     <use xlink:href="#DejaVuSans-Bold-20" transform="translate(1142.96875 0)"/>
     <use xlink:href="#DejaVuSans-Bold-50" transform="translate(1177.783203 0)"/>
     <use xlink:href="#DejaVuSans-Bold-4d" transform="translate(1251.074219 0)"/>
     <use xlink:href="#DejaVuSans-Bold-46" transform="translate(1350.585938 0)"/>
    </g>
   </g>
   <g id="legend_1">
    <g id="line2d_21">
     <path d="M 324.589609 32.691953 
L 333.089609 32.691953 
L 341.589609 32.691953 
" style="fill: none; stroke: #2563eb; stroke-width: 1.5; stroke-linecap: square"/>
     <g>
      <use xlink:href="#me0abe11b3f" x="333.089609" y="32.691953" style="fill: #2563eb; stroke: #2563eb"/>
     </g>
    </g>
    <g id="text_20">
     <!-- λ=1 -->
     <g transform="translate(348.389609 35.666953) scale(0.085 -0.085)">
      <defs>
       <path id="DejaVuSans-3bb" d="M 1981 4316 
L 3597 0 
L 2988 0 
L 2006 2588 
L 800 0 
L 191 0 
L 1725 3356 
L 1494 3975 
Q 1347 4369 1013 4369 
L 713 4369 
L 713 4863 
L 1078 4856 
Q 1784 4847 1981 4316 
z
" transform="scale(0.015625)"/>
      </defs>
      <use xlink:href="#DejaVuSans-3bb"/>
      <use xlink:href="#DejaVuSans-3d" transform="translate(59.179688 0)"/>
      <use xlink:href="#DejaVuSans-31" transform="translate(142.96875 0)"/>
     </g>
    </g>
    <g id="line2d_22">
     <path d="M 324.589609 45.168359 
L 333.089609 45.168359 
L 341.589609 45.168359 
" style="fill: none; stroke: #dc2626; stroke-width: 1.5; stroke-linecap: square"/>
     <g>
      <use xlink:href="#m8c4ed89f44" x="333.089609" y="45.168359" style="fill: #dc2626; stroke: #dc2626"/>
     </g>
    </g>
    <g id="text_21">
     <!-- λ=4 -->
     <g transform="translate(348.389609 48.143359) scale(0.085 -0.085)">
      <use xlink:href="#DejaVuSans-3bb"/>
      <use xlink:href="#DejaVuSans-3d" transform="translate(59.179688 0)"/>
      <use xlink:href="#DejaVuSans-34" transform="translate(142.96875 0)"/>
     </g>
    </g>
    <g id="line2d_23">
     <path d="M 324.589609 57.644766 
L 333.089609 57.644766 
L 341.589609 57.644766 
" style="fill: none; stroke: #16a34a; stroke-width: 1.5; stroke-linecap: square"/>
     <g>
      <use xlink:href="#m646b7064d3" x="333.089609" y="57.644766" style="fill: #16a34a; stroke: #16a34a"/>
     </g>
    </g>
    <g id="text_22">
     <!-- λ=10 -->
     <g transform="translate(348.389609 60.619766) scale(0.085 -0.085)">
      <use xlink:href="#DejaVuSans-3bb"/>
      <use xlink:href="#DejaVuSans-3d" transform="translate(59.179688 0)"/>
      <use xlink:href="#DejaVuSans-31" transform="translate(142.96875 0)"/>
      <use xlink:href="#DejaVuSans-30" transform="translate(206.591797 0)"/>
     </g>
    </g>
    <g id="line2d_24">
     <path d="M 324.589609 70.121172 
L 333.089609 70.121172 
L 341.589609 70.121172 
" style="fill: none; stroke: #9333ea; stroke-width: 1.5; stroke-linecap: square"/>
     <g>
      <use xlink:href="#m2c6d0ae98a" x="333.089609" y="70.121172" style="fill: #9333ea; stroke: #9333ea"/>
     </g>
    </g>
    <g id="text_23">
     <!-- λ=0.5 -->
     <g transform="translate(348.389609 73.096172) scale(0.085 -0.085)">
      <use xlink:href="#DejaVuSans-3bb"/>
      <use xlink:href="#DejaVuSans-3d" transform="translate(59.179688 0)"/>
      <use xlink:href="#DejaVuSans-30" transform="translate(142.96875 0)"/>
      <use xlink:href="#DejaVuSans-2e" transform="translate(206.591797 0)"/>
      <use xlink:href="#DejaVuSans-35" transform="translate(238.378906 0)"/>
     </g>
    </g>
   </g>
  </g>
 </g>
 <defs>
  <clipPath id="p20c0854256">
   <rect x="42.190938" y="21.558281" width="339.52" height="164.44"/>
  </clipPath>
 </defs>
</svg>
